<?xml version="1.0" encoding="utf-8" standalone="no"?>
<!DOCTYPE svg PUBLIC "-//W3C//DTD SVG 1.1//EN"
  "http://www.w3.org/Graphics/SVG/1.1/DTD/svg11.dtd">
<svg xmlns:xlink="http://www.w3.org/1999/xlink" width="864pt" height="576pt" viewBox="0 0 864 576" xmlns="http://www.w3.org/2000/svg" version="1.1">
 <metadata>
  <rdf:RDF xmlns:dc="http://purl.org/dc/elements/1.1/" xmlns:cc="http://creativecommons.org/ns#" xmlns:rdf="http://www.w3.org/1999/02/22-rdf-syntax-ns#">
   <cc:Work>
    <dc:type rdf:resource="http://purl.org/dc/dcmitype/StillImage"/>
    <dc:date>2022-02-21T19:23:17.366206</dc:date>
    <dc:format>image/svg+xml</dc:format>
    <dc:creator>
     <cc:Agent>
      <dc:title>Matplotlib v3.5.1, https://matplotlib.org/</dc:title>
     </cc:Agent>
    </dc:creator>
   </cc:Work>
  </rdf:RDF>
 </metadata>
 <defs>
  <style type="text/css">*{stroke-linejoin: round; stroke-linecap: butt}</style>
 </defs>
 <g id="figure_1">
  <g id="patch_1">
   <path d="M 0 576 
L 864 576 
L 864 0 
L 0 0 
L 0 576 
z
" style="fill: none"/>
  </g>
  <g id="axes_1">
   <g id="patch_2">
    <path d="M 108 504 
L 777.6 504 
L 777.6 69.12 
L 108 69.12 
z
" style="fill: #ffffff"/>
   </g>
   <g id="matplotlib.axis_1">
    <g id="xtick_1">
     <g id="line2d_1">
      <defs>
       <path id="m69109f9592" d="M 0 0 
L 0 3.5 
" style="stroke: #000000; stroke-width: 0.8"/>
      </defs>
      <g>
       <use xlink:href="#m69109f9592" x="175.480622" y="504" style="stroke: #000000; stroke-width: 0.8"/>
      </g>
     </g>
     <g id="text_1">
      <!-- 2017 -->
      <g transform="translate(162.755622 518.598438)scale(0.1 -0.1)">
       <defs>
        <path id="DejaVuSans-32" d="M 1228 531 
L 3431 531 
L 3431 0 
L 469 0 
L 469 531 
Q 828 903 1448 1529 
Q 2069 2156 2228 2338 
Q 2531 2678 2651 2914 
Q 2772 3150 2772 3378 
Q 2772 3750 2511 3984 
Q 2250 4219 1831 4219 
Q 1534 4219 1204 4116 
Q 875 4013 500 3803 
L 500 4441 
Q 881 4594 1212 4672 
Q 1544 4750 1819 4750 
Q 2544 4750 2975 4387 
Q 3406 4025 3406 3419 
Q 3406 3131 3298 2873 
Q 3191 2616 2906 2266 
Q 2828 2175 2409 1742 
Q 1991 1309 1228 531 
z
" transform="scale(0.015625)"/>
        <path id="DejaVuSans-30" d="M 2034 4250 
Q 1547 4250 1301 3770 
Q 1056 3291 1056 2328 
Q 1056 1369 1301 889 
Q 1547 409 2034 409 
Q 2525 409 2770 889 
Q 3016 1369 3016 2328 
Q 3016 3291 2770 3770 
Q 2525 4250 2034 4250 
z
M 2034 4750 
Q 2819 4750 3233 4129 
Q 3647 3509 3647 2328 
Q 3647 1150 3233 529 
Q 2819 -91 2034 -91 
Q 1250 -91 836 529 
Q 422 1150 422 2328 
Q 422 3509 836 4129 
Q 1250 4750 2034 4750 
z
" transform="scale(0.015625)"/>
        <path id="DejaVuSans-31" d="M 794 531 
L 1825 531 
L 1825 4091 
L 703 3866 
L 703 4441 
L 1819 4666 
L 2450 4666 
L 2450 531 
L 3481 531 
L 3481 0 
L 794 0 
L 794 531 
z
" transform="scale(0.015625)"/>
        <path id="DejaVuSans-37" d="M 525 4666 
L 3525 4666 
L 3525 4397 
L 1831 0 
L 1172 0 
L 2766 4134 
L 525 4134 
L 525 4666 
z
" transform="scale(0.015625)"/>
       </defs>
       <use xlink:href="#DejaVuSans-32"/>
       <use xlink:href="#DejaVuSans-30" x="63.623047"/>
       <use xlink:href="#DejaVuSans-31" x="127.246094"/>
       <use xlink:href="#DejaVuSans-37" x="190.869141"/>
      </g>
     </g>
    </g>
    <g id="xtick_2">
     <g id="line2d_2">
      <g>
       <use xlink:href="#m69109f9592" x="297.292823" y="504" style="stroke: #000000; stroke-width: 0.8"/>
      </g>
     </g>
     <g id="text_2">
      <!-- 2018 -->
      <g transform="translate(284.567823 518.598438)scale(0.1 -0.1)">
       <defs>
        <path id="DejaVuSans-38" d="M 2034 2216 
Q 1584 2216 1326 1975 
Q 1069 1734 1069 1313 
Q 1069 891 1326 650 
Q 1584 409 2034 409 
Q 2484 409 2743 651 
Q 3003 894 3003 1313 
Q 3003 1734 2745 1975 
Q 2488 2216 2034 2216 
z
M 1403 2484 
Q 997 2584 770 2862 
Q 544 3141 544 3541 
Q 544 4100 942 4425 
Q 1341 4750 2034 4750 
Q 2731 4750 3128 4425 
Q 3525 4100 3525 3541 
Q 3525 3141 3298 2862 
Q 3072 2584 2669 2484 
Q 3125 2378 3379 2068 
Q 3634 1759 3634 1313 
Q 3634 634 3220 271 
Q 2806 -91 2034 -91 
Q 1263 -91 848 271 
Q 434 634 434 1313 
Q 434 1759 690 2068 
Q 947 2378 1403 2484 
z
M 1172 3481 
Q 1172 3119 1398 2916 
Q 1625 2713 2034 2713 
Q 2441 2713 2670 2916 
Q 2900 3119 2900 3481 
Q 2900 3844 2670 4047 
Q 2441 4250 2034 4250 
Q 1625 4250 1398 4047 
Q 1172 3844 1172 3481 
z
" transform="scale(0.015625)"/>
       </defs>
       <use xlink:href="#DejaVuSans-32"/>
       <use xlink:href="#DejaVuSans-30" x="63.623047"/>
       <use xlink:href="#DejaVuSans-31" x="127.246094"/>
       <use xlink:href="#DejaVuSans-38" x="190.869141"/>
      </g>
     </g>
    </g>
    <g id="xtick_3">
     <g id="line2d_3">
      <g>
       <use xlink:href="#m69109f9592" x="419.105024" y="504" style="stroke: #000000; stroke-width: 0.8"/>
      </g>
     </g>
     <g id="text_3">
      <!-- 2019 -->
      <g transform="translate(406.380024 518.598438)scale(0.1 -0.1)">
       <defs>
        <path id="DejaVuSans-39" d="M 703 97 
L 703 672 
Q 941 559 1184 500 
Q 1428 441 1663 441 
Q 2288 441 2617 861 
Q 2947 1281 2994 2138 
Q 2813 1869 2534 1725 
Q 2256 1581 1919 1581 
Q 1219 1581 811 2004 
Q 403 2428 403 3163 
Q 403 3881 828 4315 
Q 1253 4750 1959 4750 
Q 2769 4750 3195 4129 
Q 3622 3509 3622 2328 
Q 3622 1225 3098 567 
Q 2575 -91 1691 -91 
Q 1453 -91 1209 -44 
Q 966 3 703 97 
z
M 1959 2075 
Q 2384 2075 2632 2365 
Q 2881 2656 2881 3163 
Q 2881 3666 2632 3958 
Q 2384 4250 1959 4250 
Q 1534 4250 1286 3958 
Q 1038 3666 1038 3163 
Q 1038 2656 1286 2365 
Q 1534 2075 1959 2075 
z
" transform="scale(0.015625)"/>
       </defs>
       <use xlink:href="#DejaVuSans-32"/>
       <use xlink:href="#DejaVuSans-30" x="63.623047"/>
       <use xlink:href="#DejaVuSans-31" x="127.246094"/>
       <use xlink:href="#DejaVuSans-39" x="190.869141"/>
      </g>
     </g>
    </g>
    <g id="xtick_4">
     <g id="line2d_4">
      <g>
       <use xlink:href="#m69109f9592" x="540.917225" y="504" style="stroke: #000000; stroke-width: 0.8"/>
      </g>
     </g>
     <g id="text_4">
      <!-- 2020 -->
      <g transform="translate(528.192225 518.598438)scale(0.1 -0.1)">
       <use xlink:href="#DejaVuSans-32"/>
       <use xlink:href="#DejaVuSans-30" x="63.623047"/>
       <use xlink:href="#DejaVuSans-32" x="127.246094"/>
       <use xlink:href="#DejaVuSans-30" x="190.869141"/>
      </g>
     </g>
    </g>
    <g id="xtick_5">
     <g id="line2d_5">
      <g>
       <use xlink:href="#m69109f9592" x="663.063158" y="504" style="stroke: #000000; stroke-width: 0.8"/>
      </g>
     </g>
     <g id="text_5">
      <!-- 2021 -->
      <g transform="translate(650.338158 518.598438)scale(0.1 -0.1)">
       <use xlink:href="#DejaVuSans-32"/>
       <use xlink:href="#DejaVuSans-30" x="63.623047"/>
       <use xlink:href="#DejaVuSans-32" x="127.246094"/>
       <use xlink:href="#DejaVuSans-31" x="190.869141"/>
      </g>
     </g>
    </g>
    <g id="text_6">
     <!-- Date -->
     <g transform="translate(430.849219 532.276562)scale(0.1 -0.1)">
      <defs>
       <path id="DejaVuSans-44" d="M 1259 4147 
L 1259 519 
L 2022 519 
Q 2988 519 3436 956 
Q 3884 1394 3884 2338 
Q 3884 3275 3436 3711 
Q 2988 4147 2022 4147 
L 1259 4147 
z
M 628 4666 
L 1925 4666 
Q 3281 4666 3915 4102 
Q 4550 3538 4550 2338 
Q 4550 1131 3912 565 
Q 3275 0 1925 0 
L 628 0 
L 628 4666 
z
" transform="scale(0.015625)"/>
       <path id="DejaVuSans-61" d="M 2194 1759 
Q 1497 1759 1228 1600 
Q 959 1441 959 1056 
Q 959 750 1161 570 
Q 1363 391 1709 391 
Q 2188 391 2477 730 
Q 2766 1069 2766 1631 
L 2766 1759 
L 2194 1759 
z
M 3341 1997 
L 3341 0 
L 2766 0 
L 2766 531 
Q 2569 213 2275 61 
Q 1981 -91 1556 -91 
Q 1019 -91 701 211 
Q 384 513 384 1019 
Q 384 1609 779 1909 
Q 1175 2209 1959 2209 
L 2766 2209 
L 2766 2266 
Q 2766 2663 2505 2880 
Q 2244 3097 1772 3097 
Q 1472 3097 1187 3025 
Q 903 2953 641 2809 
L 641 3341 
Q 956 3463 1253 3523 
Q 1550 3584 1831 3584 
Q 2591 3584 2966 3190 
Q 3341 2797 3341 1997 
z
" transform="scale(0.015625)"/>
       <path id="DejaVuSans-74" d="M 1172 4494 
L 1172 3500 
L 2356 3500 
L 2356 3053 
L 1172 3053 
L 1172 1153 
Q 1172 725 1289 603 
Q 1406 481 1766 481 
L 2356 481 
L 2356 0 
L 1766 0 
Q 1100 0 847 248 
Q 594 497 594 1153 
L 594 3053 
L 172 3053 
L 172 3500 
L 594 3500 
L 594 4494 
L 1172 4494 
z
" transform="scale(0.015625)"/>
       <path id="DejaVuSans-65" d="M 3597 1894 
L 3597 1613 
L 953 1613 
Q 991 1019 1311 708 
Q 1631 397 2203 397 
Q 2534 397 2845 478 
Q 3156 559 3463 722 
L 3463 178 
Q 3153 47 2828 -22 
Q 2503 -91 2169 -91 
Q 1331 -91 842 396 
Q 353 884 353 1716 
Q 353 2575 817 3079 
Q 1281 3584 2069 3584 
Q 2775 3584 3186 3129 
Q 3597 2675 3597 1894 
z
M 3022 2063 
Q 3016 2534 2758 2815 
Q 2500 3097 2075 3097 
Q 1594 3097 1305 2825 
Q 1016 2553 972 2059 
L 3022 2063 
z
" transform="scale(0.015625)"/>
      </defs>
      <use xlink:href="#DejaVuSans-44"/>
      <use xlink:href="#DejaVuSans-61" x="77.001953"/>
      <use xlink:href="#DejaVuSans-74" x="138.28125"/>
      <use xlink:href="#DejaVuSans-65" x="177.490234"/>
     </g>
    </g>
   </g>
   <g id="matplotlib.axis_2">
    <g id="ytick_1">
     <g id="line2d_6">
      <defs>
       <path id="mfe96298ffb" d="M 0 0 
L -3.5 0 
" style="stroke: #000000; stroke-width: 0.8"/>
      </defs>
      <g>
       <use xlink:href="#mfe96298ffb" x="108" y="452.489533" style="stroke: #000000; stroke-width: 0.8"/>
      </g>
     </g>
     <g id="text_7">
      <!-- 1200 -->
      <g transform="translate(75.55 456.288752)scale(0.1 -0.1)">
       <use xlink:href="#DejaVuSans-31"/>
       <use xlink:href="#DejaVuSans-32" x="63.623047"/>
       <use xlink:href="#DejaVuSans-30" x="127.246094"/>
       <use xlink:href="#DejaVuSans-30" x="190.869141"/>
      </g>
     </g>
    </g>
    <g id="ytick_2">
     <g id="line2d_7">
      <g>
       <use xlink:href="#mfe96298ffb" x="108" y="368.628088" style="stroke: #000000; stroke-width: 0.8"/>
      </g>
     </g>
     <g id="text_8">
      <!-- 1400 -->
      <g transform="translate(75.55 372.427307)scale(0.1 -0.1)">
       <defs>
        <path id="DejaVuSans-34" d="M 2419 4116 
L 825 1625 
L 2419 1625 
L 2419 4116 
z
M 2253 4666 
L 3047 4666 
L 3047 1625 
L 3713 1625 
L 3713 1100 
L 3047 1100 
L 3047 0 
L 2419 0 
L 2419 1100 
L 313 1100 
L 313 1709 
L 2253 4666 
z
" transform="scale(0.015625)"/>
       </defs>
       <use xlink:href="#DejaVuSans-31"/>
       <use xlink:href="#DejaVuSans-34" x="63.623047"/>
       <use xlink:href="#DejaVuSans-30" x="127.246094"/>
       <use xlink:href="#DejaVuSans-30" x="190.869141"/>
      </g>
     </g>
    </g>
    <g id="ytick_3">
     <g id="line2d_8">
      <g>
       <use xlink:href="#mfe96298ffb" x="108" y="284.766643" style="stroke: #000000; stroke-width: 0.8"/>
      </g>
     </g>
     <g id="text_9">
      <!-- 1600 -->
      <g transform="translate(75.55 288.565862)scale(0.1 -0.1)">
       <defs>
        <path id="DejaVuSans-36" d="M 2113 2584 
Q 1688 2584 1439 2293 
Q 1191 2003 1191 1497 
Q 1191 994 1439 701 
Q 1688 409 2113 409 
Q 2538 409 2786 701 
Q 3034 994 3034 1497 
Q 3034 2003 2786 2293 
Q 2538 2584 2113 2584 
z
M 3366 4563 
L 3366 3988 
Q 3128 4100 2886 4159 
Q 2644 4219 2406 4219 
Q 1781 4219 1451 3797 
Q 1122 3375 1075 2522 
Q 1259 2794 1537 2939 
Q 1816 3084 2150 3084 
Q 2853 3084 3261 2657 
Q 3669 2231 3669 1497 
Q 3669 778 3244 343 
Q 2819 -91 2113 -91 
Q 1303 -91 875 529 
Q 447 1150 447 2328 
Q 447 3434 972 4092 
Q 1497 4750 2381 4750 
Q 2619 4750 2861 4703 
Q 3103 4656 3366 4563 
z
" transform="scale(0.015625)"/>
       </defs>
       <use xlink:href="#DejaVuSans-31"/>
       <use xlink:href="#DejaVuSans-36" x="63.623047"/>
       <use xlink:href="#DejaVuSans-30" x="127.246094"/>
       <use xlink:href="#DejaVuSans-30" x="190.869141"/>
      </g>
     </g>
    </g>
    <g id="ytick_4">
     <g id="line2d_9">
      <g>
       <use xlink:href="#mfe96298ffb" x="108" y="200.905198" style="stroke: #000000; stroke-width: 0.8"/>
      </g>
     </g>
     <g id="text_10">
      <!-- 1800 -->
      <g transform="translate(75.55 204.704417)scale(0.1 -0.1)">
       <use xlink:href="#DejaVuSans-31"/>
       <use xlink:href="#DejaVuSans-38" x="63.623047"/>
       <use xlink:href="#DejaVuSans-30" x="127.246094"/>
       <use xlink:href="#DejaVuSans-30" x="190.869141"/>
      </g>
     </g>
    </g>
    <g id="ytick_5">
     <g id="line2d_10">
      <g>
       <use xlink:href="#mfe96298ffb" x="108" y="117.043753" style="stroke: #000000; stroke-width: 0.8"/>
      </g>
     </g>
     <g id="text_11">
      <!-- 2000 -->
      <g transform="translate(75.55 120.842972)scale(0.1 -0.1)">
       <use xlink:href="#DejaVuSans-32"/>
       <use xlink:href="#DejaVuSans-30" x="63.623047"/>
       <use xlink:href="#DejaVuSans-30" x="127.246094"/>
       <use xlink:href="#DejaVuSans-30" x="190.869141"/>
      </g>
     </g>
    </g>
    <g id="text_12">
     <!-- dollar per troy ounce -->
     <g transform="translate(69.470312 338.909219)rotate(-90)scale(0.1 -0.1)">
      <defs>
       <path id="DejaVuSans-64" d="M 2906 2969 
L 2906 4863 
L 3481 4863 
L 3481 0 
L 2906 0 
L 2906 525 
Q 2725 213 2448 61 
Q 2172 -91 1784 -91 
Q 1150 -91 751 415 
Q 353 922 353 1747 
Q 353 2572 751 3078 
Q 1150 3584 1784 3584 
Q 2172 3584 2448 3432 
Q 2725 3281 2906 2969 
z
M 947 1747 
Q 947 1113 1208 752 
Q 1469 391 1925 391 
Q 2381 391 2643 752 
Q 2906 1113 2906 1747 
Q 2906 2381 2643 2742 
Q 2381 3103 1925 3103 
Q 1469 3103 1208 2742 
Q 947 2381 947 1747 
z
" transform="scale(0.015625)"/>
       <path id="DejaVuSans-6f" d="M 1959 3097 
Q 1497 3097 1228 2736 
Q 959 2375 959 1747 
Q 959 1119 1226 758 
Q 1494 397 1959 397 
Q 2419 397 2687 759 
Q 2956 1122 2956 1747 
Q 2956 2369 2687 2733 
Q 2419 3097 1959 3097 
z
M 1959 3584 
Q 2709 3584 3137 3096 
Q 3566 2609 3566 1747 
Q 3566 888 3137 398 
Q 2709 -91 1959 -91 
Q 1206 -91 779 398 
Q 353 888 353 1747 
Q 353 2609 779 3096 
Q 1206 3584 1959 3584 
z
" transform="scale(0.015625)"/>
       <path id="DejaVuSans-6c" d="M 603 4863 
L 1178 4863 
L 1178 0 
L 603 0 
L 603 4863 
z
" transform="scale(0.015625)"/>
       <path id="DejaVuSans-72" d="M 2631 2963 
Q 2534 3019 2420 3045 
Q 2306 3072 2169 3072 
Q 1681 3072 1420 2755 
Q 1159 2438 1159 1844 
L 1159 0 
L 581 0 
L 581 3500 
L 1159 3500 
L 1159 2956 
Q 1341 3275 1631 3429 
Q 1922 3584 2338 3584 
Q 2397 3584 2469 3576 
Q 2541 3569 2628 3553 
L 2631 2963 
z
" transform="scale(0.015625)"/>
       <path id="DejaVuSans-20" transform="scale(0.015625)"/>
       <path id="DejaVuSans-70" d="M 1159 525 
L 1159 -1331 
L 581 -1331 
L 581 3500 
L 1159 3500 
L 1159 2969 
Q 1341 3281 1617 3432 
Q 1894 3584 2278 3584 
Q 2916 3584 3314 3078 
Q 3713 2572 3713 1747 
Q 3713 922 3314 415 
Q 2916 -91 2278 -91 
Q 1894 -91 1617 61 
Q 1341 213 1159 525 
z
M 3116 1747 
Q 3116 2381 2855 2742 
Q 2594 3103 2138 3103 
Q 1681 3103 1420 2742 
Q 1159 2381 1159 1747 
Q 1159 1113 1420 752 
Q 1681 391 2138 391 
Q 2594 391 2855 752 
Q 3116 1113 3116 1747 
z
" transform="scale(0.015625)"/>
       <path id="DejaVuSans-79" d="M 2059 -325 
Q 1816 -950 1584 -1140 
Q 1353 -1331 966 -1331 
L 506 -1331 
L 506 -850 
L 844 -850 
Q 1081 -850 1212 -737 
Q 1344 -625 1503 -206 
L 1606 56 
L 191 3500 
L 800 3500 
L 1894 763 
L 2988 3500 
L 3597 3500 
L 2059 -325 
z
" transform="scale(0.015625)"/>
       <path id="DejaVuSans-75" d="M 544 1381 
L 544 3500 
L 1119 3500 
L 1119 1403 
Q 1119 906 1312 657 
Q 1506 409 1894 409 
Q 2359 409 2629 706 
Q 2900 1003 2900 1516 
L 2900 3500 
L 3475 3500 
L 3475 0 
L 2900 0 
L 2900 538 
Q 2691 219 2414 64 
Q 2138 -91 1772 -91 
Q 1169 -91 856 284 
Q 544 659 544 1381 
z
M 1991 3584 
L 1991 3584 
z
" transform="scale(0.015625)"/>
       <path id="DejaVuSans-6e" d="M 3513 2113 
L 3513 0 
L 2938 0 
L 2938 2094 
Q 2938 2591 2744 2837 
Q 2550 3084 2163 3084 
Q 1697 3084 1428 2787 
Q 1159 2491 1159 1978 
L 1159 0 
L 581 0 
L 581 3500 
L 1159 3500 
L 1159 2956 
Q 1366 3272 1645 3428 
Q 1925 3584 2291 3584 
Q 2894 3584 3203 3211 
Q 3513 2838 3513 2113 
z
" transform="scale(0.015625)"/>
       <path id="DejaVuSans-63" d="M 3122 3366 
L 3122 2828 
Q 2878 2963 2633 3030 
Q 2388 3097 2138 3097 
Q 1578 3097 1268 2742 
Q 959 2388 959 1747 
Q 959 1106 1268 751 
Q 1578 397 2138 397 
Q 2388 397 2633 464 
Q 2878 531 3122 666 
L 3122 134 
Q 2881 22 2623 -34 
Q 2366 -91 2075 -91 
Q 1284 -91 818 406 
Q 353 903 353 1747 
Q 353 2603 823 3093 
Q 1294 3584 2113 3584 
Q 2378 3584 2631 3529 
Q 2884 3475 3122 3366 
z
" transform="scale(0.015625)"/>
      </defs>
      <use xlink:href="#DejaVuSans-64"/>
      <use xlink:href="#DejaVuSans-6f" x="63.476562"/>
      <use xlink:href="#DejaVuSans-6c" x="124.658203"/>
      <use xlink:href="#DejaVuSans-6c" x="152.441406"/>
      <use xlink:href="#DejaVuSans-61" x="180.224609"/>
      <use xlink:href="#DejaVuSans-72" x="241.503906"/>
      <use xlink:href="#DejaVuSans-20" x="282.617188"/>
      <use xlink:href="#DejaVuSans-70" x="314.404297"/>
      <use xlink:href="#DejaVuSans-65" x="377.880859"/>
      <use xlink:href="#DejaVuSans-72" x="439.404297"/>
      <use xlink:href="#DejaVuSans-20" x="480.517578"/>
      <use xlink:href="#DejaVuSans-74" x="512.304688"/>
      <use xlink:href="#DejaVuSans-72" x="551.513672"/>
      <use xlink:href="#DejaVuSans-6f" x="590.376953"/>
      <use xlink:href="#DejaVuSans-79" x="651.558594"/>
      <use xlink:href="#DejaVuSans-20" x="710.738281"/>
      <use xlink:href="#DejaVuSans-6f" x="742.525391"/>
      <use xlink:href="#DejaVuSans-75" x="803.707031"/>
      <use xlink:href="#DejaVuSans-6e" x="867.085938"/>
      <use xlink:href="#DejaVuSans-63" x="930.464844"/>
      <use xlink:href="#DejaVuSans-65" x="985.445312"/>
     </g>
    </g>
   </g>
   <g id="line2d_11">
    <path d="M 161.797608 447.37408 
L 162.13134 439.222795 
L 162.465072 445.889535 
L 162.798804 457.044092 
L 163.132536 458.164966 
L 164.133732 465.487839 
L 164.467464 466.486846 
L 164.801196 465.172738 
L 165.134928 465.46869 
L 165.46866 464.05652 
L 166.469856 468.807911 
L 166.803589 469.568911 
L 167.137321 461.666608 
L 167.471053 468.609928 
L 167.804785 467.164634 
L 168.805981 468.838188 
L 169.139713 470.261204 
L 169.473445 469.221239 
L 169.807177 469.790161 
L 170.140909 473.023329 
L 171.142105 474.235942 
L 171.475837 484.232727 
L 171.809569 477.071253 
L 172.477033 480.679844 
L 174.145694 480.50844 
L 174.479426 481.298037 
L 174.813158 472.30508 
L 176.148086 480.097226 
L 176.481818 468.968564 
L 176.81555 463.195248 
L 177.149282 462.395288 
L 178.150478 459.640031 
L 178.484211 456.046303 
L 178.817943 459.524527 
L 179.151675 469.173004 
L 179.485407 467.411533 
L 180.486603 465.866053 
L 180.820335 463.752927 
L 181.487799 458.233649 
L 181.821531 452.237871 
L 182.822727 455.776367 
L 183.156459 452.62507 
L 183.490191 456.54616 
L 184.157656 452.982794 
L 185.158852 455.598933 
L 185.492584 456.886457 
L 185.826316 451.595933 
L 186.160048 453.782516 
L 186.49378 451.282142 
L 187.494976 449.784494 
L 187.828708 438.334337 
L 188.16244 446.690145 
L 188.829904 440.930598 
L 189.8311 440.36942 
L 190.164833 439.640621 
L 190.498565 440.856479 
L 190.832297 434.760908 
L 191.166029 434.663468 
L 192.167225 439.222458 
L 192.500957 439.196513 
L 192.834689 438.940165 
L 193.168421 439.193206 
L 193.502153 437.568623 
L 194.503349 436.011128 
L 194.837081 428.595292 
L 195.170813 431.847209 
L 195.504545 431.206095 
L 195.838278 431.758067 
L 196.839474 433.128971 
L 197.173206 433.871936 
L 197.506938 435.945374 
L 197.84067 448.388699 
L 198.174402 440.224111 
L 199.175598 450.168097 
L 199.50933 444.67562 
L 200.176794 446.862189 
L 200.510526 439.397161 
L 201.511722 444.586484 
L 201.845455 433.446153 
L 202.179187 431.387032 
L 202.512919 435.643683 
L 202.846651 433.338546 
L 203.847847 432.137581 
L 204.181579 430.007234 
L 204.515311 430.679446 
L 205.182775 435.21082 
L 206.183971 437.105232 
L 206.517703 428.207428 
L 206.851435 437.923218 
L 207.5189 425.757414 
L 208.520096 433.59474 
L 208.853828 432.928142 
L 209.18756 422.561637 
L 209.521292 419.071815 
L 211.189952 420.683349 
L 211.857416 417.13771 
L 212.191148 412.235499 
L 213.192344 424.546558 
L 213.526077 414.532583 
L 213.859809 417.246704 
L 214.193541 424.84921 
L 214.527273 425.221296 
L 215.862201 429.170233 
L 216.195933 432.330949 
L 216.529665 442.096368 
L 216.863397 440.022756 
L 217.864593 436.917081 
L 218.198325 440.027754 
L 218.532057 441.701041 
L 218.865789 439.998607 
L 219.199522 439.433304 
L 220.200718 439.734001 
L 220.53445 436.193366 
L 220.868182 435.159299 
L 221.535646 430.283528 
L 222.536842 429.236195 
L 222.870574 426.486385 
L 223.204306 424.769 
L 223.538038 429.728753 
L 223.87177 425.340605 
L 225.540431 426.279161 
L 225.874163 426.363435 
L 226.207895 425.092236 
L 227.209091 418.603518 
L 227.542823 422.295278 
L 227.876555 415.943305 
L 228.210287 417.617867 
L 228.544019 422.787958 
L 229.545215 426.498978 
L 229.878947 426.685689 
L 230.546411 428.592891 
L 230.880144 429.563183 
L 232.548804 436.669361 
L 232.882536 432.840223 
L 233.216268 437.406934 
L 234.217464 434.75555 
L 234.884928 430.391249 
L 235.21866 428.781402 
L 235.552392 436.481537 
L 236.553589 441.706587 
L 236.887321 444.249809 
L 237.221053 442.131148 
L 237.554785 442.534433 
L 237.888517 445.677376 
L 238.889713 447.884599 
L 239.223445 441.08181 
L 239.557177 446.59219 
L 239.890909 442.669689 
L 240.224641 444.278336 
L 241.225837 436.544724 
L 241.559569 442.989688 
L 241.893301 441.267601 
L 242.227033 440.508148 
L 242.560766 430.235391 
L 243.561962 429.438433 
L 243.895694 430.937913 
L 244.229426 433.558162 
L 244.563158 433.285486 
L 244.89689 425.149209 
L 245.898086 422.34385 
L 246.231818 430.172987 
L 246.899282 427.811552 
L 247.233014 426.741603 
L 248.234211 427.689105 
L 248.567943 428.315825 
L 248.901675 422.846204 
L 249.235407 428.993243 
L 249.569139 417.62832 
L 250.570335 424.21354 
L 251.237799 419.296176 
L 251.571531 417.604532 
L 251.905263 414.007671 
L 252.906459 412.959713 
L 253.240191 415.957825 
L 253.573923 412.280624 
L 254.241388 416.421914 
L 255.576316 412.887453 
L 255.910048 408.670876 
L 256.24378 407.603468 
L 256.577512 402.642468 
L 257.578708 395.544046 
L 257.91244 403.153885 
L 258.246172 392.843863 
L 258.579904 395.85317 
L 258.913636 391.941348 
L 259.914833 389.213077 
L 260.248565 388.703002 
L 260.916029 392.819049 
L 261.249761 393.921731 
L 262.250957 394.401774 
L 262.584689 408.132757 
L 262.918421 397.794509 
L 263.252153 399.069822 
L 263.585885 400.959731 
L 264.587081 412.44644 
L 264.920813 411.07643 
L 265.254545 404.771045 
L 265.588278 406.669219 
L 265.92201 407.506212 
L 266.923206 408.88471 
L 267.256938 421.262387 
L 267.59067 413.949631 
L 267.924402 416.982369 
L 268.258134 424.530355 
L 269.25933 420.664078 
L 269.593062 423.55724 
L 269.926794 419.256376 
L 270.260526 412.753807 
L 270.594258 414.416452 
L 271.595455 410.464095 
L 271.929187 406.317981 
L 272.262919 419.420016 
L 272.596651 409.483789 
L 272.930383 410.987053 
L 273.931579 414.423334 
L 274.265311 419.93462 
L 274.599043 422.40125 
L 274.932775 419.530455 
L 275.266507 419.652221 
L 276.267703 420.721346 
L 276.601435 420.60869 
L 276.935167 420.877982 
L 277.2689 420.312159 
L 277.602632 423.92872 
L 278.93756 420.324105 
L 279.271292 420.033626 
L 279.605024 418.103198 
L 279.938756 419.541933 
L 281.273684 419.316075 
L 281.607416 419.410736 
L 281.941148 419.343686 
L 282.27488 418.299299 
L 283.276077 419.290451 
L 283.609809 419.031744 
L 283.943541 418.597829 
L 284.277273 414.232384 
L 284.611005 417.383822 
L 285.612201 413.394928 
L 285.945933 416.016893 
L 286.279665 416.10783 
L 286.613397 416.879383 
L 286.947129 418.610703 
L 287.948325 420.034654 
L 288.615789 426.944981 
L 288.949522 429.205095 
L 289.283254 430.518087 
L 290.28445 428.246635 
L 290.618182 429.559763 
L 290.951914 433.082866 
L 291.285646 430.92142 
L 291.619378 435.154274 
L 292.620574 426.413384 
L 292.954306 429.374224 
L 293.62177 425.597454 
L 293.955502 422.88094 
L 295.624163 422.444612 
L 295.957895 419.424008 
L 296.291627 408.120364 
L 297.626555 410.247649 
L 297.960287 404.309301 
L 298.294019 405.632023 
L 298.627751 404.807396 
L 299.628947 406.390857 
L 299.962679 407.734216 
L 300.296411 403.980851 
L 300.963876 401.291154 
L 301.965072 393.160739 
L 302.298804 396.482507 
L 302.966268 393.369311 
L 303.3 394.591136 
L 304.301196 392.30416 
L 304.634928 398.532997 
L 304.96866 392.285468 
L 305.636124 388.986236 
L 306.637321 392.234157 
L 306.971053 387.837823 
L 307.304785 387.540109 
L 307.638517 388.050673 
L 307.972249 388.324812 
L 308.973445 389.467976 
L 309.640909 391.85665 
L 309.974641 405.220367 
L 310.308373 395.011966 
L 311.309569 400.6888 
L 311.643301 396.677815 
L 311.977033 397.051389 
L 312.310766 396.847053 
L 312.644498 396.266821 
L 313.645694 392.273503 
L 313.979426 395.375187 
L 314.313158 394.942509 
L 314.64689 395.101321 
L 314.980622 395.114765 
L 316.31555 395.404765 
L 316.649282 401.081605 
L 316.983014 396.290437 
L 317.316746 397.564268 
L 318.317943 403.989343 
L 318.651675 398.981075 
L 318.985407 397.386744 
L 319.319139 403.583593 
L 319.652871 395.87394 
L 320.654067 396.163247 
L 321.321531 397.670321 
L 321.988995 398.133722 
L 322.990191 404.562098 
L 323.323923 401.135501 
L 323.657656 402.799062 
L 323.991388 398.80004 
L 324.32512 400.704132 
L 325.326316 398.914322 
L 325.660048 395.256138 
L 325.99378 394.550812 
L 327.996172 397.571809 
L 328.329904 398.84683 
L 328.663636 399.101741 
L 328.997368 395.550532 
L 329.998565 398.479368 
L 330.666029 387.903966 
L 330.999761 396.311162 
L 331.333493 394.000489 
L 332.334689 395.792994 
L 332.668421 394.73714 
L 333.002153 394.958419 
L 333.335885 391.223254 
L 333.669617 395.816368 
L 334.670813 401.231337 
L 335.004545 398.021303 
L 335.338278 396.74742 
L 335.67201 398.689789 
L 336.005742 399.61374 
L 337.006938 400.687554 
L 337.34067 400.322818 
L 337.674402 409.605642 
L 338.008134 403.358618 
L 338.341866 407.314645 
L 339.676794 403.601969 
L 340.010526 404.323765 
L 340.344258 403.58404 
L 340.67799 400.204019 
L 341.679187 401.849508 
L 342.012919 400.306507 
L 342.346651 412.490159 
L 342.680383 405.360094 
L 343.014115 415.426082 
L 344.015311 411.143379 
L 344.349043 414.709794 
L 344.682775 416.411823 
L 345.016507 409.979909 
L 345.350239 416.737262 
L 346.685167 413.865602 
L 347.0189 408.893822 
L 347.352632 408.092971 
L 347.686364 412.642856 
L 348.68756 412.559584 
L 349.021292 412.335045 
L 349.355024 412.476378 
L 350.022488 411.958949 
L 351.357416 411.830674 
L 351.691148 411.634952 
L 352.02488 409.56174 
L 353.359809 417.835371 
L 353.693541 412.277692 
L 354.027273 412.971714 
L 354.361005 422.780026 
L 354.694737 424.38998 
L 355.695933 418.12116 
L 356.029665 421.309135 
L 356.363397 428.241753 
L 356.697129 430.713394 
L 357.030861 430.439183 
L 358.032057 433.933764 
L 358.365789 434.39587 
L 358.699522 433.967981 
L 359.033254 428.135452 
L 359.366986 432.748689 
L 360.368182 432.35552 
L 360.701914 431.454223 
L 361.035646 430.925602 
L 361.70311 431.890636 
L 362.704306 435.160385 
L 363.038038 432.363376 
L 363.705502 434.157685 
L 364.039234 436.064675 
L 365.040431 440.00915 
L 365.374163 439.108663 
L 365.707895 439.447187 
L 366.041627 440.351339 
L 366.375359 440.888033 
L 367.376555 440.633121 
L 367.710287 441.238443 
L 368.044019 446.324334 
L 368.377751 447.515407 
L 368.711483 443.047409 
L 369.712679 443.803046 
L 370.046411 444.909414 
L 370.380144 446.84358 
L 370.713876 446.703312 
L 371.047608 447.225513 
L 372.048804 453.593306 
L 372.382536 448.705165 
L 372.716268 450.244439 
L 373.05 453.071968 
L 373.383732 456.852956 
L 374.384928 460.287614 
L 374.71866 454.520288 
L 375.052392 453.889792 
L 375.386124 460.465998 
L 375.719856 460.087459 
L 377.054785 459.35101 
L 377.388517 456.94031 
L 377.722249 456.109635 
L 378.055981 449.368724 
L 379.057177 454.693858 
L 379.390909 454.462578 
L 379.724641 454.466211 
L 381.393301 453.748393 
L 381.727033 454.023075 
L 382.060766 454.490787 
L 382.394498 447.69908 
L 382.72823 449.948345 
L 383.729426 453.955186 
L 384.063158 453.796525 
L 384.39689 451.972902 
L 384.730622 449.159069 
L 385.064354 453.275568 
L 386.733014 453.107528 
L 387.066746 453.677132 
L 387.400478 457.844261 
L 388.401675 454.861301 
L 388.735407 454.94111 
L 389.069139 451.817309 
L 389.402871 453.701234 
L 389.736603 452.549371 
L 390.737799 459.389266 
L 391.071531 451.954519 
L 391.405263 458.559697 
L 391.738995 449.826134 
L 392.072727 452.622278 
L 393.073923 452.29458 
L 393.407656 451.975235 
L 393.741388 441.610771 
L 394.07512 449.438413 
L 394.408852 441.996449 
L 395.410048 442.298962 
L 395.74378 441.211325 
L 396.077512 436.632504 
L 396.411244 438.542401 
L 396.744976 436.847363 
L 397.746172 437.036426 
L 398.079904 437.475977 
L 398.413636 445.675959 
L 398.747368 439.82323 
L 399.0811 440.076 
L 400.082297 439.799852 
L 400.416029 439.347019 
L 400.749761 439.506719 
L 401.083493 439.358346 
L 401.417225 439.853243 
L 402.418421 440.787223 
L 402.752153 451.384373 
L 403.085885 444.023851 
L 403.753349 446.16127 
L 404.754545 446.412401 
L 405.088278 444.304812 
L 405.42201 440.159823 
L 405.755742 443.183514 
L 406.089474 443.465495 
L 407.758134 442.439276 
L 408.091866 443.005128 
L 409.426794 441.593322 
L 409.760526 442.800771 
L 410.094258 442.12374 
L 410.761722 441.290827 
L 411.762919 440.806112 
L 412.096651 439.159398 
L 412.430383 436.781823 
L 412.764115 435.208718 
L 413.097847 438.782675 
L 414.099043 435.262908 
L 414.432775 431.216464 
L 414.766507 434.355004 
L 415.433971 430.040147 
L 416.435167 427.836764 
L 417.436364 426.644199 
L 417.770096 424.270614 
L 419.772488 415.677129 
L 420.10622 420.854734 
L 421.441148 412.666 
L 421.77488 413.014378 
L 422.108612 412.816592 
L 422.442344 412.942342 
L 423.443541 412.944709 
L 423.777273 412.819226 
L 424.444737 412.828222 
L 424.778469 412.78945 
L 425.779665 413.061519 
L 426.113397 413.860252 
L 426.447129 420.030865 
L 426.780861 414.849435 
L 427.114593 415.171798 
L 428.115789 414.922988 
L 428.449522 408.045943 
L 429.116986 401.547827 
L 429.450718 412.301318 
L 430.451914 405.701149 
L 430.785646 410.188559 
L 431.119378 409.514391 
L 431.45311 408.2084 
L 431.786842 406.188415 
L 432.788038 407.197994 
L 433.455502 407.109994 
L 433.789234 406.653237 
L 434.122967 406.549762 
L 435.124163 405.926692 
L 435.457895 397.126284 
L 435.791627 403.341692 
L 436.459091 399.611851 
L 437.460287 398.264709 
L 437.794019 397.139135 
L 438.461483 397.303524 
L 438.795215 398.225295 
L 439.796411 399.769276 
L 440.130144 417.777533 
L 440.463876 405.172066 
L 440.797608 418.076479 
L 441.13134 411.137579 
L 442.132536 412.305532 
L 442.466268 413.420985 
L 443.133732 409.907572 
L 443.467464 410.035252 
L 444.46866 407.930383 
L 445.136124 405.543204 
L 445.469856 405.558679 
L 445.803589 405.052385 
L 446.804785 404.702174 
L 447.138517 403.449492 
L 447.472249 402.726106 
L 447.805981 402.509398 
L 448.139713 404.838369 
L 449.140909 412.78105 
L 449.474641 412.781542 
L 449.808373 414.920743 
L 450.142105 415.950921 
L 450.475837 413.217849 
L 451.477033 411.944693 
L 451.810766 410.92248 
L 452.144498 409.006055 
L 452.47823 409.486746 
L 452.811962 407.281407 
L 453.813158 408.409649 
L 454.14689 409.290646 
L 454.480622 420.388176 
L 454.814354 413.211563 
L 456.483014 423.408842 
L 456.816746 416.34382 
L 457.150478 417.486103 
L 457.484211 418.002434 
L 458.485407 417.45955 
L 459.152871 418.255259 
L 459.486603 424.832145 
L 459.820335 418.95076 
L 461.155263 419.238784 
L 461.488995 417.701083 
L 461.822727 418.410305 
L 462.156459 417.796879 
L 463.157656 410.423481 
L 463.491388 416.213095 
L 464.158852 413.825046 
L 464.492584 413.301377 
L 465.49378 414.518458 
L 465.827512 422.559475 
L 466.161244 422.638153 
L 466.494976 417.703372 
L 466.828708 417.675471 
L 468.163636 417.687209 
L 468.497368 417.847391 
L 469.164833 417.913461 
L 470.166029 416.932499 
L 470.499761 415.254058 
L 470.833493 406.817906 
L 471.167225 405.669614 
L 471.500957 402.802531 
L 472.502153 398.264047 
L 472.835885 400.125849 
L 473.169617 401.238058 
L 473.503349 396.408554 
L 473.837081 396.608558 
L 475.17201 390.067667 
L 475.505742 390.603832 
L 475.839474 377.487617 
L 476.173206 370.689692 
L 477.174402 364.99277 
L 477.508134 375.790174 
L 477.841866 370.301548 
L 478.175598 361.375113 
L 478.50933 360.046028 
L 479.510526 372.81753 
L 479.844258 361.219558 
L 480.17799 363.18576 
L 480.511722 362.263855 
L 480.845455 374.135385 
L 481.846651 363.864447 
L 482.180383 372.532918 
L 482.514115 365.346794 
L 482.847847 361.900552 
L 483.181579 365.289763 
L 484.182775 365.173354 
L 484.850239 364.633586 
L 485.183971 362.36831 
L 485.517703 364.300475 
L 486.852632 362.257878 
L 487.186364 361.636688 
L 487.520096 361.345042 
L 487.853828 360.560526 
L 488.855024 360.56739 
L 489.188756 356.165436 
L 489.85622 360.555512 
L 490.189952 352.411654 
L 491.191148 360.790193 
L 491.52488 358.157533 
L 491.858612 322.877871 
L 492.192344 328.44333 
L 492.526077 328.496034 
L 493.527273 324.863897 
L 493.861005 319.177119 
L 494.194737 317.104954 
L 494.528469 313.969593 
L 494.862201 313.238147 
L 495.863397 315.80119 
L 496.197129 325.01858 
L 496.530861 319.649458 
L 496.864593 326.049428 
L 497.198325 323.919158 
L 498.866986 320.402371 
L 499.53445 314.980944 
L 500.535646 317.399406 
L 500.869378 316.36411 
L 501.20311 308.90264 
L 501.536842 313.956737 
L 501.870574 313.971262 
L 502.87177 322.771727 
L 503.205502 314.846495 
L 503.539234 316.082306 
L 503.872967 321.933594 
L 504.206699 318.27998 
L 505.207895 327.732466 
L 505.541627 319.521567 
L 505.875359 320.475946 
L 506.209091 321.03749 
L 506.542823 321.046712 
L 507.544019 319.283439 
L 507.877751 317.884699 
L 508.211483 320.799517 
L 508.545215 322.528241 
L 508.878947 329.767203 
L 509.880144 334.284151 
L 510.213876 321.821573 
L 510.547608 323.029453 
L 510.88134 319.140882 
L 511.215072 323.849154 
L 512.216268 323.795086 
L 512.883732 323.211707 
L 513.217464 322.244831 
L 513.551196 323.354105 
L 514.552392 325.12609 
L 514.886124 331.366222 
L 515.219856 327.65601 
L 515.887321 330.564318 
L 516.888517 330.157194 
L 517.222249 333.642985 
L 517.555981 333.979084 
L 517.889713 332.828718 
L 518.223445 320.828352 
L 519.224641 328.257752 
L 519.558373 328.277923 
L 519.892105 328.652329 
L 520.225837 328.585005 
L 520.559569 323.759091 
L 521.560766 323.106531 
L 521.894498 332.955958 
L 522.22823 327.198391 
L 522.895694 343.643625 
L 523.89689 342.092287 
L 524.230622 331.031672 
L 525.231818 341.983913 
L 526.233014 339.018101 
L 526.566746 338.99772 
L 526.900478 337.447251 
L 527.234211 339.234582 
L 527.567943 340.19256 
L 528.569139 345.931461 
L 528.902871 345.081008 
L 529.236603 342.271854 
L 529.570335 345.754733 
L 529.904067 344.218107 
L 530.905263 344.921253 
L 531.238995 334.249037 
L 531.906459 342.804464 
L 532.240191 345.497191 
L 533.241388 341.819365 
L 533.57512 341.496966 
L 533.908852 340.897307 
L 534.242584 340.82546 
L 534.576316 340.448272 
L 535.577512 333.961415 
L 535.911244 337.802695 
L 536.244976 339.811271 
L 536.578708 339.414466 
L 536.91244 335.122584 
L 537.913636 334.200971 
L 538.247368 338.097917 
L 539.248565 336.590816 
L 540.249761 318.847243 
L 540.583493 319.009934 
L 541.250957 328.167919 
L 541.584689 323.757514 
L 542.585885 319.733507 
L 542.919617 297.322512 
L 543.253349 294.813947 
L 543.587081 297.675134 
L 543.920813 294.78715 
L 544.92201 295.612048 
L 545.255742 297.598745 
L 545.589474 307.331669 
L 545.923206 300.918692 
L 546.256938 301.994294 
L 547.258134 302.143666 
L 547.591866 301.469779 
L 547.925598 302.215963 
L 548.593062 301.591955 
L 549.594258 301.734528 
L 549.92799 300.463175 
L 550.261722 299.971323 
L 550.929187 291.78827 
L 551.930383 297.146022 
L 552.264115 297.963484 
L 552.597847 298.406205 
L 552.931579 299.081584 
L 553.265311 299.30086 
L 554.266507 294.902057 
L 554.600239 298.872562 
L 554.933971 298.766321 
L 555.267703 299.150167 
L 555.601435 293.326495 
L 556.602632 298.253258 
L 557.270096 284.296919 
L 557.603828 296.121669 
L 557.93756 292.422975 
L 558.938756 286.785853 
L 559.60622 260.438566 
L 559.939952 255.321852 
L 560.273684 254.951596 
L 561.27488 261.727716 
L 561.608612 268.026339 
L 561.942344 270.308372 
L 562.276077 269.486193 
L 562.609809 267.750524 
L 563.611005 264.468093 
L 563.944737 262.365449 
L 564.278469 262.976189 
L 564.612201 261.446625 
L 564.945933 298.2726 
L 565.947129 268.944704 
L 566.280861 280.020898 
L 566.614593 328.356101 
L 566.948325 306.546829 
L 567.282057 330.036213 
L 568.283254 317.987186 
L 568.616986 282.523735 
L 568.950718 303.109599 
L 569.618182 275.613746 
L 570.619378 278.419113 
L 570.95311 281.664443 
L 571.286842 295.605143 
L 571.620574 281.88325 
L 571.954306 284.243454 
L 572.955502 285.81863 
L 573.289234 262.033548 
L 573.622967 276.174833 
L 573.956699 249.788862 
L 575.625359 268.917356 
L 575.959091 256.891601 
L 576.292823 255.80832 
L 576.626555 248.565061 
L 577.627751 253.094726 
L 577.961483 257.17291 
L 578.295215 259.401022 
L 578.628947 251.621385 
L 578.962679 240.317099 
L 579.963876 234.604191 
L 580.297608 247.61852 
L 580.63134 237.028585 
L 580.965072 242.980956 
L 581.298804 238.759775 
L 582.3 241.236336 
L 582.633732 243.762691 
L 582.967464 244.880769 
L 583.301196 243.417285 
L 584.636124 241.013511 
L 584.969856 242.007636 
L 585.303589 244.068937 
L 585.637321 229.594399 
L 585.971053 239.877013 
L 586.972249 237.341581 
L 587.639713 221.327002 
L 587.973445 234.357766 
L 588.307177 228.580241 
L 589.642105 233.836211 
L 589.975837 244.035919 
L 590.309569 235.327927 
L 590.643301 235.656958 
L 591.644498 235.844893 
L 591.97823 235.439257 
L 592.311962 234.391173 
L 592.645694 240.786751 
L 592.979426 235.312525 
L 593.980622 236.897733 
L 594.314354 237.744704 
L 594.648086 237.878333 
L 594.981818 226.084344 
L 595.31555 227.682024 
L 596.316746 239.021847 
L 596.650478 236.064747 
L 596.984211 231.420612 
L 597.317943 235.813371 
L 597.651675 228.276901 
L 598.652871 235.066937 
L 598.986603 214.211651 
L 599.320335 230.237165 
L 599.654067 221.028704 
L 599.987799 224.351945 
L 600.988995 221.687942 
L 601.322727 215.389499 
L 601.656459 212.506411 
L 601.990191 208.604417 
L 602.323923 214.270153 
L 603.32512 206.618372 
L 603.658852 205.621679 
L 603.992584 197.230112 
L 604.326316 201.456096 
L 604.660048 198.14942 
L 605.661244 196.137367 
L 605.994976 195.747127 
L 606.328708 200.330766 
L 606.66244 199.659872 
L 606.996172 196.529512 
L 607.997368 195.350634 
L 608.3311 194.74725 
L 608.664833 192.212617 
L 608.998565 168.15923 
L 609.332297 158.23363 
L 610.333493 178.883403 
L 610.667225 166.997734 
L 611.000957 136.737448 
L 611.334689 134.744984 
L 611.668421 131.643312 
L 612.669617 124.148862 
L 613.003349 123.787717 
L 613.337081 122.36528 
L 614.004545 105.292408 
L 615.005742 104.10409 
L 615.339474 141.275019 
L 615.673206 144.978213 
L 616.006938 142.160672 
L 616.34067 114.672164 
L 617.341866 116.844343 
L 617.675598 118.3636 
L 618.00933 117.705369 
L 618.343062 147.288143 
L 618.676794 122.71274 
L 619.67799 141.337536 
L 620.011722 126.553364 
L 620.345455 128.684856 
L 620.679187 129.834433 
L 621.012919 132.047239 
L 622.347847 128.246763 
L 622.681579 140.453972 
L 623.015311 131.382219 
L 623.349043 131.539697 
L 624.350239 132.356261 
L 624.683971 156.204543 
L 625.017703 138.153351 
L 625.351435 134.959279 
L 625.685167 139.692419 
L 626.686364 134.281074 
L 627.020096 133.931571 
L 627.353828 134.209857 
L 627.68756 133.34306 
L 628.021292 134.644951 
L 629.022488 155.902469 
L 629.35622 135.828114 
L 629.689952 172.146303 
L 630.023684 176.106342 
L 630.357416 174.010359 
L 631.358612 172.893776 
L 631.692344 165.227692 
L 632.026077 174.172509 
L 632.693541 168.32588 
L 633.694737 165.005143 
L 634.028469 153.545493 
L 634.362201 159.302724 
L 634.695933 160.158455 
L 635.029665 160.5622 
L 636.030861 146.352602 
L 636.364593 161.332831 
L 636.698325 156.770884 
L 637.032057 155.193698 
L 637.365789 155.263993 
L 638.700718 155.931289 
L 639.03445 146.804822 
L 639.368182 155.800511 
L 640.70311 155.914441 
L 641.036842 156.307706 
L 641.370574 172.275392 
L 641.704306 172.252631 
L 642.038038 161.002899 
L 643.039234 162.149083 
L 643.372967 161.859655 
L 643.706699 157.514918 
L 644.040431 144.018233 
L 644.374163 140.641059 
L 645.375359 155.124775 
L 645.709091 156.321476 
L 646.042823 176.918831 
L 646.376555 161.368206 
L 646.710287 161.900959 
L 647.711483 164.36193 
L 648.045215 159.708641 
L 648.378947 158.683257 
L 648.712679 158.958284 
L 649.046411 168.886136 
L 650.047608 160.702538 
L 650.38134 165.802068 
L 650.715072 198.471685 
L 651.048804 187.312416 
L 651.382536 201.720244 
L 652.383732 211.047932 
L 652.717464 221.23621 
L 653.051196 214.006388 
L 653.384928 209.686172 
L 653.71866 184.039404 
L 654.719856 200.418127 
L 655.053589 196.205967 
L 655.387321 183.536498 
L 655.721053 182.431334 
L 656.054785 190.778292 
L 657.055981 189.179622 
L 657.389713 187.943064 
L 657.723445 187.451085 
L 658.057177 164.456033 
L 658.390909 184.479135 
L 659.392105 167.232011 
L 659.725837 180.311472 
L 660.059569 178.280794 
L 660.393301 167.990159 
L 662.061962 168.441802 
L 662.395694 165.441427 
L 662.729426 174.397673 
L 664.064354 139.530642 
L 664.398086 164.860539 
L 664.731818 160.965518 
L 665.06555 158.592244 
L 665.399282 153.865037 
L 666.400478 159.225034 
L 667.067943 172.255766 
L 667.401675 178.477532 
L 667.735407 181.918314 
L 669.070335 188.440235 
L 669.404067 179.074357 
L 669.737799 180.155506 
L 670.071531 177.487065 
L 671.072727 175.044006 
L 671.406459 177.95098 
L 671.740191 173.960126 
L 672.073923 177.276644 
L 672.407656 174.795266 
L 673.408852 173.900796 
L 673.742584 172.539412 
L 674.076316 174.105533 
L 674.410048 205.95207 
L 674.74378 199.935326 
L 675.744976 184.065602 
L 676.41244 190.116538 
L 676.746172 188.212158 
L 677.079904 184.637405 
L 678.0811 186.964062 
L 678.414833 204.92168 
L 678.748565 197.572799 
L 679.082297 203.539138 
L 679.416029 204.924073 
L 680.417225 206.535518 
L 680.750957 200.435542 
L 681.084689 211.993225 
L 681.418421 214.396473 
L 681.752153 215.163669 
L 682.753349 220.712792 
L 683.087081 233.626708 
L 683.754545 238.261132 
L 684.088278 236.542645 
L 685.089474 249.044246 
L 685.423206 250.250142 
L 686.09067 245.899779 
L 686.424402 241.59091 
L 687.425598 242.255751 
L 687.75933 226.797781 
L 688.093062 239.632057 
L 688.426794 238.138968 
L 688.760526 238.620337 
L 689.761722 228.722763 
L 690.095455 236.511951 
L 690.429187 228.389547 
L 690.762919 235.121443 
L 691.096651 227.843768 
L 692.097847 234.313971 
L 692.431579 248.906668 
L 692.765311 244.876973 
L 693.099043 233.565203 
L 694.767703 224.956582 
L 695.101435 235.456492 
L 695.435167 221.442675 
L 695.7689 223.696174 
L 696.770096 233.182495 
L 697.103828 233.068901 
L 698.105024 213.148718 
L 699.10622 231.140247 
L 699.439952 211.106714 
L 699.773684 200.524931 
L 700.107416 222.411809 
L 700.441148 209.940254 
L 701.442344 210.228853 
L 701.776077 211.83699 
L 702.443541 218.069075 
L 702.777273 214.102278 
L 704.112201 220.89038 
L 704.445933 212.191745 
L 704.779665 193.610808 
L 705.113397 186.654879 
L 706.114593 202.388002 
L 706.448325 188.876319 
L 706.782057 197.553007 
L 707.115789 193.175072 
L 707.449522 190.999378 
L 708.450718 185.36467 
L 708.78445 174.447753 
L 709.118182 176.305451 
L 709.451914 169.368777 
L 709.785646 167.050382 
L 710.786842 166.417488 
L 711.120574 166.363789 
L 711.788038 161.980308 
L 712.12177 160.571198 
L 713.456699 158.418588 
L 713.790431 157.630768 
L 714.124163 171.511645 
L 714.457895 159.402934 
L 715.459091 165.704852 
L 715.792823 159.443342 
L 716.126555 160.132501 
L 716.460287 162.113513 
L 716.794019 165.470747 
L 717.795215 160.633079 
L 718.462679 163.115105 
L 718.796411 210.015319 
L 719.130144 212.403281 
L 720.13134 209.572515 
L 720.465072 212.58561 
L 720.798804 203.396036 
L 721.132536 207.048591 
L 721.466268 206.383166 
L 722.467464 208.006066 
L 722.801196 201.095971 
L 723.134928 201.000654 
L 723.802392 206.880082 
L 724.803589 205.987157 
L 725.137321 195.753823 
L 725.471053 206.135698 
L 726.138517 198.368525 
L 727.139713 203.386714 
L 727.807177 189.45572 
L 728.140909 191.825721 
L 728.474641 195.64446 
L 729.809569 194.574236 
L 730.143301 195.108631 
L 730.477033 196.603416 
L 730.810766 202.846615 
L 731.811962 199.024004 
L 732.145694 200.544152 
L 732.813158 202.071259 
L 733.14689 201.264807 
L 734.148086 198.166985 
L 734.481818 196.011368 
L 734.81555 188.804811 
L 735.149282 197.637909 
L 735.483014 215.776452 
L 736.484211 226.033685 
L 736.817943 231.111749 
L 737.151675 222.740036 
L 737.485407 224.018631 
L 737.819139 213.81323 
L 738.820335 212.706183 
L 739.487799 201.644578 
L 740.155263 211.291234 
L 741.156459 200.131581 
L 741.490191 202.058769 
L 741.823923 207.262931 
L 742.157656 199.486651 
L 742.491388 201.419482 
L 743.826316 196.658684 
L 744.160048 197.537179 
L 744.49378 199.305106 
L 744.827512 192.753763 
L 745.828708 197.866413 
L 746.16244 200.175009 
L 746.496172 208.382985 
L 746.829904 200.490792 
L 747.163636 203.648439 
L 747.163636 203.648439 
" clip-path="url(#pc07d952a80)" style="fill: none; stroke: #ff0000; stroke-width: 1.5; stroke-linecap: square"/>
   </g>
   <g id="line2d_12">
    <path d="M 138.436364 400.243853 
L 138.770096 400.642195 
L 139.103828 401.438879 
L 139.43756 406.030293 
L 139.771292 407.057595 
L 140.772488 404.332099 
L 141.10622 404.772371 
L 141.773684 394.163898 
L 142.107416 394.352587 
L 143.108612 393.576868 
L 143.442344 399.237516 
L 144.109809 402.96935 
L 144.443541 401.124398 
L 145.444737 404.982025 
L 145.778469 417.561241 
L 146.445933 429.63729 
L 146.779665 427.855234 
L 147.780861 427.540753 
L 148.114593 430.077562 
L 148.448325 428.798675 
L 148.782057 426.890827 
L 149.115789 430.790384 
L 150.116986 429.511497 
L 150.450718 428.085853 
L 150.78445 423.536369 
L 151.118182 422.446171 
L 151.451914 424.794291 
L 152.45311 425.003945 
L 152.786842 423.389612 
L 153.120574 422.928374 
L 153.454306 424.71043 
L 153.788038 421.880106 
L 154.789234 422.299413 
L 155.456699 408.986409 
L 155.790431 410.139504 
L 156.124163 409.384751 
L 157.125359 417.666068 
L 157.792823 418.357925 
L 158.126555 424.186296 
L 158.460287 437.205785 
L 159.461483 446.786955 
L 159.795215 441.189204 
L 160.128947 440.245762 
L 160.462679 441.273065 
L 160.796411 447.877154 
L 161.797608 446.514405 
L 162.13134 447.35302 
L 162.465072 458.632384 
L 162.798804 458.317904 
L 163.132536 457.647012 
L 164.467464 458.129216 
L 164.801196 461.672362 
L 165.134928 468.486104 
L 165.46866 463.601175 
L 166.469856 468.339347 
L 166.803589 464.020482 
L 167.137321 461.86105 
L 167.804785 467.752316 
L 168.805981 470.897121 
L 169.139713 469.869818 
L 169.473445 468.318381 
L 169.807177 483.119926 
L 170.140909 481.170148 
L 171.142105 479.220369 
L 171.475837 483.64406 
L 171.809569 480.310568 
L 172.143301 481.274974 
L 172.477033 480.5936 
L 174.145694 479.912226 
L 174.479426 475.174054 
L 174.813158 474.104821 
L 176.148086 473.035587 
L 176.81555 462.259392 
L 177.149282 462.615803 
L 178.150478 461.504639 
L 178.484211 456.892259 
L 178.817943 461.483673 
L 179.151675 450.372032 
L 179.485407 456.535848 
L 180.486603 451.231612 
L 180.820335 445.759652 
L 181.154067 446.304752 
L 181.487799 454.145797 
L 182.822727 447.101436 
L 183.156459 445.445172 
L 183.490191 454.58607 
L 184.157656 458.842038 
L 185.158852 455.508545 
L 185.492584 447.122401 
L 185.826316 450.959062 
L 186.160048 443.28574 
L 186.49378 446.116064 
L 187.828708 439.491009 
L 188.16244 434.836699 
L 188.496172 437.059027 
L 188.829904 440.623139 
L 189.8311 443.159948 
L 190.164833 439.595836 
L 190.498565 442.258437 
L 190.832297 435.486625 
L 191.166029 434.899595 
L 192.167225 436.849374 
L 192.500957 438.568533 
L 192.834689 437.121924 
L 193.168421 432.404717 
L 193.502153 429.993701 
L 194.503349 428.50516 
L 194.837081 429.176052 
L 195.170813 435.549521 
L 195.504545 436.513928 
L 195.838278 441.377892 
L 196.839474 439.511975 
L 197.173206 445.508068 
L 197.506938 448.631907 
L 197.84067 449.743071 
L 198.174402 451.378369 
L 199.50933 450.56072 
L 199.843062 452.992702 
L 200.176794 440.182866 
L 200.510526 440.07804 
L 201.511722 438.903979 
L 202.179187 431.922514 
L 202.512919 432.57244 
L 202.846651 432.57244 
L 203.847847 428.358403 
L 204.181579 428.484195 
L 204.515311 431.062934 
L 204.849043 432.027341 
L 205.182775 433.683604 
L 206.183971 432.677267 
L 206.517703 428.316472 
L 206.851435 433.285262 
L 207.185167 430.475904 
L 207.5189 424.626568 
L 208.520096 431.503207 
L 208.853828 430.308181 
L 209.18756 421.335007 
L 209.521292 417.20483 
L 211.189952 419.385228 
L 211.523684 419.343297 
L 211.857416 418.06441 
L 212.191148 418.169237 
L 213.192344 423.389612 
L 213.526077 424.060503 
L 213.859809 426.555381 
L 214.193541 426.15704 
L 214.527273 424.626568 
L 215.862201 429.238948 
L 216.195933 431.39838 
L 216.529665 440.560243 
L 216.863397 440.727966 
L 217.864593 439.994178 
L 218.198325 443.935666 
L 218.532057 442.866433 
L 218.865789 442.782571 
L 219.199522 439.386183 
L 220.53445 438.149226 
L 220.868182 428.421299 
L 221.201914 429.050259 
L 221.535646 430.685558 
L 222.536842 427.813303 
L 222.870574 427.247238 
L 223.204306 430.454939 
L 223.538038 428.609987 
L 223.87177 425.213598 
L 225.206699 426.19897 
L 225.540431 424.731395 
L 225.874163 425.29746 
L 226.207895 421.062457 
L 227.209091 418.965921 
L 227.542823 413.284308 
L 227.876555 414.332576 
L 228.210287 421.838175 
L 228.544019 424.584638 
L 229.545215 424.647534 
L 229.878947 426.492485 
L 230.212679 420.831838 
L 230.546411 429.616324 
L 230.880144 429.259913 
L 231.88134 432.29989 
L 232.215072 434.794768 
L 232.548804 434.668976 
L 232.882536 431.188726 
L 233.216268 429.134121 
L 234.217464 433.515881 
L 234.551196 431.71286 
L 234.884928 432.362787 
L 235.21866 434.249669 
L 235.552392 434.773803 
L 237.221053 443.977597 
L 237.554785 442.048783 
L 237.888517 445.927375 
L 239.223445 447.856189 
L 239.557177 444.606558 
L 239.890909 444.564627 
L 240.224641 439.784524 
L 241.225837 438.191157 
L 241.559569 435.402764 
L 241.893301 434.815734 
L 242.227033 436.262344 
L 242.560766 432.132168 
L 243.561962 429.197017 
L 243.895694 429.67922 
L 244.229426 432.320856 
L 244.563158 426.869862 
L 244.89689 425.276494 
L 245.898086 424.16533 
L 246.231818 422.739686 
L 246.899282 423.934711 
L 247.233014 428.295506 
L 248.234211 428.169714 
L 248.567943 426.576347 
L 248.901675 422.697755 
L 249.235407 417.100004 
L 249.569139 416.387181 
L 250.570335 417.980549 
L 250.904067 423.012235 
L 251.237799 421.984933 
L 251.905263 412.319901 
L 252.906459 413.535892 
L 253.240191 417.183865 
L 253.907656 415.17119 
L 254.241388 416.722627 
L 255.576316 402.738731 
L 255.910048 406.994699 
L 256.24378 405.631951 
L 256.577512 402.004943 
L 257.578708 396.679742 
L 258.246172 394.688032 
L 258.579904 392.318947 
L 258.913636 391.165852 
L 259.914833 396.218504 
L 260.248565 399.447169 
L 260.582297 399.006897 
L 260.916029 400.264818 
L 261.249761 400.977641 
L 262.584689 406.533461 
L 262.918421 405.820639 
L 263.252153 413.871338 
L 263.585885 412.739208 
L 264.587081 413.368169 
L 264.920813 410.537845 
L 265.254545 417.875722 
L 265.588278 417.540276 
L 265.92201 417.645103 
L 267.256938 422.613894 
L 267.59067 421.355972 
L 267.924402 421.251145 
L 268.258134 426.576347 
L 269.25933 419.469089 
L 269.593062 414.164853 
L 269.926794 415.066363 
L 270.260526 414.647056 
L 270.594258 410.726534 
L 271.595455 409.175097 
L 271.929187 416.953246 
L 272.262919 418.861094 
L 272.596651 416.261389 
L 272.930383 418.441787 
L 273.931579 421.083422 
L 274.265311 420.433496 
L 274.932775 421.565625 
L 275.266507 424.626568 
L 276.267703 422.299413 
L 276.601435 423.075132 
L 276.935167 420.181912 
L 277.2689 419.280401 
L 277.602632 424.312088 
L 278.603828 422.760651 
L 278.93756 420.789907 
L 279.271292 417.267726 
L 279.605024 416.932281 
L 279.938756 417.141934 
L 280.939952 419.804535 
L 281.273684 421.209214 
L 281.607416 418.022479 
L 281.941148 418.944955 
L 282.27488 417.120969 
L 283.276077 416.345251 
L 283.609809 417.561241 
L 284.277273 414.605126 
L 284.611005 414.542229 
L 285.612201 412.697278 
L 285.945933 413.976165 
L 286.279665 417.330623 
L 286.947129 420.831838 
L 287.948325 421.691418 
L 288.282057 424.689464 
L 288.615789 425.779663 
L 288.949522 429.427636 
L 289.283254 431.251622 
L 290.28445 432.719198 
L 290.618182 435.339868 
L 290.951914 434.60608 
L 291.285646 431.104865 
L 291.619378 429.595359 
L 292.620574 427.079516 
L 292.954306 427.184342 
L 293.288038 425.423252 
L 293.62177 425.423252 
L 293.955502 422.309896 
L 295.624163 419.19654 
L 296.291627 409.919367 
L 297.960287 404.311133 
L 298.294019 404.478856 
L 298.627751 403.367692 
L 299.628947 402.193632 
L 299.962679 405.946431 
L 300.296411 402.277493 
L 300.963876 399.321377 
L 301.965072 394.101002 
L 302.298804 396.365261 
L 302.632536 395.610508 
L 302.966268 397.057118 
L 303.3 395.904023 
L 304.301196 396.889395 
L 304.634928 396.553949 
L 304.96866 388.042013 
L 305.302392 387.517879 
L 305.636124 388.272632 
L 306.637321 392.172189 
L 306.971053 391.731916 
L 307.304785 391.66902 
L 307.638517 393.220457 
L 307.972249 397.497391 
L 308.973445 396.470088 
L 309.307177 397.392564 
L 309.640909 400.222888 
L 309.974641 404.080514 
L 310.308373 404.646579 
L 311.643301 399.929373 
L 311.977033 395.358924 
L 312.310766 388.566147 
L 312.644498 388.712904 
L 313.645694 391.019094 
L 313.979426 393.849418 
L 314.313158 397.76994 
L 314.64689 398.671451 
L 314.980622 398.839174 
L 315.981818 396.512019 
L 316.983014 407.30918 
L 317.316746 401.20826 
L 318.317943 402.004943 
L 318.651675 397.392564 
L 318.985407 398.231178 
L 319.319139 401.753359 
L 320.654067 402.529077 
L 320.987799 401.019571 
L 321.321531 400.684126 
L 321.655263 402.6968 
L 321.988995 406.323808 
L 322.990191 405.359401 
L 323.323923 405.946431 
L 323.991388 398.336005 
L 324.32512 391.019094 
L 325.326316 388.587112 
L 325.99378 396.952291 
L 326.327512 400.558333 
L 327.996172 396.532984 
L 328.329904 394.918651 
L 328.663636 398.944001 
L 328.997368 397.476425 
L 329.998565 397.161945 
L 330.332297 394.226794 
L 330.666029 389.278969 
L 330.999761 393.220457 
L 331.333493 392.235085 
L 332.334689 389.865999 
L 332.668421 392.905977 
L 333.002153 388.985454 
L 333.335885 390.18048 
L 333.669617 395.14927 
L 334.670813 400.369645 
L 335.004545 398.461797 
L 335.338278 401.480809 
L 335.67201 401.879151 
L 336.005742 401.543705 
L 337.006938 405.023955 
L 337.34067 407.58173 
L 337.674402 408.79772 
L 338.008134 404.248237 
L 338.341866 406.617323 
L 339.676794 407.791383 
L 340.344258 402.675835 
L 340.67799 400.34868 
L 341.679187 402.235562 
L 342.012919 412.655347 
L 342.346651 414.227749 
L 343.014115 415.464705 
L 344.015311 415.44374 
L 344.349043 413.472996 
L 344.682775 415.17119 
L 345.016507 408.525171 
L 345.350239 409.091236 
L 346.685167 412.445693 
L 347.352632 408.315517 
L 347.686364 412.82307 
L 348.68756 412.466659 
L 349.021292 413.892303 
L 349.355024 410.51688 
L 349.688756 411.711906 
L 350.022488 411.292598 
L 351.023684 410.726534 
L 351.357416 411.124876 
L 351.691148 412.173144 
L 352.02488 409.405716 
L 352.358612 416.743592 
L 353.359809 418.295029 
L 353.693541 420.559288 
L 354.027273 421.376937 
L 354.361005 424.75236 
L 354.694737 423.494439 
L 355.695933 423.683127 
L 356.363397 429.595359 
L 356.697129 430.874246 
L 357.030861 431.335484 
L 358.032057 432.446648 
L 358.699522 429.155086 
L 359.366986 429.280878 
L 360.368182 426.47152 
L 360.701914 429.846943 
L 361.035646 430.937142 
L 361.70311 435.004422 
L 362.704306 435.256006 
L 363.705502 445.130692 
L 364.039234 440.434451 
L 365.040431 442.027818 
L 365.707895 439.281356 
L 366.375359 442.447125 
L 367.376555 442.510021 
L 368.377751 446.011237 
L 368.711483 445.654826 
L 369.712679 448.443219 
L 370.046411 447.311089 
L 370.380144 448.485149 
L 370.713876 446.472475 
L 371.047608 446.451509 
L 372.382536 453.747455 
L 372.716268 460.037063 
L 373.383732 461.546569 
L 374.384928 459.051691 
L 375.052392 453.894213 
L 375.386124 455.697234 
L 375.719856 453.45394 
L 377.054785 447.35302 
L 377.722249 453.621663 
L 378.055981 451.462231 
L 379.057177 452.468568 
L 379.390909 456.326194 
L 379.724641 453.873247 
L 380.058373 450.330101 
L 380.392105 452.950771 
L 381.393301 453.915178 
L 381.727033 456.745502 
L 382.060766 454.334485 
L 382.394498 448.380323 
L 382.72823 451.671884 
L 383.729426 451.69285 
L 384.063158 452.405672 
L 384.39689 451.10582 
L 384.730622 448.988318 
L 385.064354 453.034633 
L 386.06555 451.336439 
L 386.399282 451.69285 
L 387.066746 458.611419 
L 387.400478 457.835701 
L 388.401675 456.955155 
L 388.735407 450.518789 
L 389.069139 451.986365 
L 389.402871 451.042923 
L 389.736603 450.896166 
L 390.737799 457.961493 
L 391.071531 458.548523 
L 391.405263 457.269636 
L 392.072727 444.208216 
L 393.073923 439.931282 
L 393.407656 439.616802 
L 393.741388 440.308658 
L 394.07512 442.845467 
L 394.408852 440.811827 
L 395.410048 443.138982 
L 395.74378 437.415439 
L 396.077512 439.679698 
L 396.411244 439.574871 
L 396.744976 438.295984 
L 397.746172 439.574871 
L 398.079904 441.83913 
L 398.413636 446.22089 
L 398.747368 439.428113 
L 399.0811 439.029771 
L 400.082297 438.966875 
L 400.416029 439.239425 
L 400.749761 439.931282 
L 401.083493 442.363264 
L 401.417225 447.709431 
L 402.418421 450.162378 
L 402.752153 451.608988 
L 403.085885 451.126785 
L 403.753349 443.097052 
L 404.754545 443.432497 
L 405.088278 442.845467 
L 405.42201 441.545615 
L 405.755742 441.147273 
L 406.089474 442.572917 
L 407.09067 442.677744 
L 407.424402 443.60022 
L 407.758134 446.933713 
L 408.091866 441.482719 
L 408.425598 445.130692 
L 409.426794 439.784524 
L 409.760526 435.591452 
L 410.094258 437.436404 
L 410.42799 434.648011 
L 411.762919 433.473951 
L 412.096651 433.494916 
L 412.430383 433.306228 
L 412.764115 434.564149 
L 413.097847 437.667023 
L 414.099043 435.025387 
L 414.432775 433.075609 
L 414.766507 429.427636 
L 415.100239 427.435927 
L 415.433971 428.106818 
L 417.436364 423.976642 
L 417.770096 419.364263 
L 418.771292 418.546613 
L 419.438756 417.728964 
L 419.772488 414.563195 
L 420.10622 418.986886 
L 421.107416 413.829407 
L 421.441148 416.240424 
L 421.77488 415.338913 
L 422.108612 413.955199 
L 422.442344 415.192156 
L 423.777273 412.906931 
L 424.444737 414.458368 
L 424.778469 417.183865 
L 425.779665 419.133644 
L 426.113397 418.06441 
L 426.447129 419.028817 
L 426.780861 417.393519 
L 427.114593 413.116585 
L 428.115789 409.6573 
L 428.449522 407.393041 
L 428.783254 406.072224 
L 429.116986 400.809918 
L 429.450718 402.717766 
L 430.451914 405.464228 
L 430.785646 404.604648 
L 431.45311 406.365739 
L 431.786842 404.332099 
L 432.788038 407.875245 
L 433.455502 405.191678 
L 433.789234 405.757743 
L 434.122967 403.619276 
L 435.124163 399.866477 
L 435.791627 392.21412 
L 436.125359 397.45546 
L 436.459091 398.377936 
L 437.460287 397.539321 
L 437.794019 400.055165 
L 438.127751 400.977641 
L 438.461483 402.529077 
L 438.795215 405.548089 
L 439.796411 416.680696 
L 440.130144 417.351588 
L 440.463876 416.492008 
L 440.797608 416.722627 
L 441.13134 411.921559 
L 442.132536 413.598788 
L 442.466268 411.795767 
L 442.8 407.644626 
L 443.133732 412.424728 
L 443.467464 409.091236 
L 444.46866 408.21069 
L 444.802392 407.330145 
L 445.136124 409.007374 
L 445.469856 406.533461 
L 445.803589 405.820639 
L 446.804785 402.361355 
L 447.138517 403.724103 
L 447.472249 406.491531 
L 447.805981 412.592451 
L 448.139713 412.487624 
L 449.140909 413.284308 
L 449.474641 414.626091 
L 449.808373 414.563195 
L 450.142105 417.624138 
L 450.475837 415.401809 
L 451.810766 409.300889 
L 452.144498 408.273586 
L 452.811962 412.948862 
L 453.813158 416.57587 
L 454.14689 420.475427 
L 454.480622 420.68508 
L 454.814354 420.747976 
L 456.483014 423.347681 
L 456.816746 422.446171 
L 457.150478 418.60951 
L 457.484211 417.183865 
L 458.485407 419.154609 
L 458.819139 417.980549 
L 459.152871 417.351588 
L 459.486603 422.739686 
L 459.820335 419.552951 
L 461.155263 418.441787 
L 461.488995 416.764558 
L 462.156459 415.967874 
L 463.491388 411.229702 
L 463.82512 410.936187 
L 464.158852 414.039061 
L 464.492584 418.60951 
L 465.49378 420.265773 
L 465.827512 422.655824 
L 466.161244 421.54466 
L 466.494976 417.414484 
L 468.163636 419.657778 
L 468.497368 418.253098 
L 468.8311 418.546613 
L 469.164833 412.424728 
L 470.499761 400.390611 
L 470.833493 395.862093 
L 471.167225 395.673404 
L 471.500957 393.513972 
L 472.835885 400.369645 
L 473.169617 396.994222 
L 473.503349 395.505681 
L 473.837081 389.069316 
L 474.838278 393.241422 
L 475.17201 393.220457 
L 475.505742 392.088328 
L 475.839474 377.223886 
L 476.173206 369.823114 
L 477.174402 366.238037 
L 477.508134 355.461841 
L 477.841866 366.971825 
L 478.175598 367.57982 
L 478.50933 364.854323 
L 479.510526 372.77923 
L 479.844258 372.380888 
L 480.17799 362.967441 
L 480.511722 362.380411 
L 480.845455 373.387225 
L 481.846651 368.586158 
L 482.180383 372.171234 
L 482.514115 365.147838 
L 482.847847 362.862614 
L 483.181579 365.441353 
L 484.182775 363.428679 
L 484.516507 364.497912 
L 484.850239 364.288258 
L 485.183971 361.311177 
L 485.517703 351.981591 
L 486.5189 356.992313 
L 486.852632 357.914789 
L 487.186364 357.327759 
L 487.520096 361.877242 
L 487.853828 360.074221 
L 488.855024 360.640286 
L 489.188756 357.768031 
L 489.522488 357.076174 
L 489.85622 365.776799 
L 490.189952 351.122012 
L 491.191148 341.268292 
L 491.52488 341.268292 
L 491.858612 324.160557 
L 492.192344 328.479421 
L 492.526077 327.661772 
L 493.527273 324.726622 
L 493.861005 327.368257 
L 494.194737 321.141545 
L 494.528469 320.135208 
L 494.862201 320.302931 
L 495.863397 328.12301 
L 496.197129 324.789518 
L 496.864593 325.837786 
L 497.198325 325.103998 
L 498.533254 312.881193 
L 499.200718 309.841215 
L 499.53445 314.789041 
L 500.535646 315.816343 
L 501.20311 307.367303 
L 501.536842 314.495525 
L 502.87177 322.839739 
L 503.539234 330.617888 
L 503.872967 320.323896 
L 504.206699 325.397513 
L 505.207895 327.871426 
L 505.541627 325.816821 
L 505.875359 325.22979 
L 506.209091 326.403851 
L 506.542823 325.900682 
L 507.544019 317.430676 
L 507.877751 318.038672 
L 508.211483 314.642283 
L 508.878947 330.932369 
L 509.880144 332.861182 
L 510.213876 337.829973 
L 510.88134 319.527212 
L 511.215072 327.053777 
L 512.216268 326.173232 
L 512.55 324.244418 
L 512.883732 323.657388 
L 513.551196 335.439921 
L 514.552392 330.638854 
L 515.219856 332.945043 
L 515.553589 329.779274 
L 515.887321 330.890438 
L 516.888517 330.198581 
L 517.222249 332.840217 
L 517.555981 329.024521 
L 517.889713 328.143976 
L 518.223445 321.057684 
L 519.558373 332.253186 
L 519.892105 330.009893 
L 520.225837 322.105952 
L 520.559569 323.007462 
L 521.560766 322.734912 
L 521.894498 331.330711 
L 522.22823 332.546702 
L 522.561962 333.301455 
L 522.895694 341.72953 
L 523.89689 344.014754 
L 524.230622 346.803147 
L 524.564354 342.253664 
L 524.898086 340.681262 
L 526.233014 340.261954 
L 526.566746 339.926509 
L 526.900478 338.56376 
L 527.234211 340.513539 
L 527.567943 341.603738 
L 528.569139 344.140546 
L 528.902871 345.712948 
L 529.236603 345.838741 
L 529.570335 345.712948 
L 529.904067 343.406759 
L 530.905263 342.987451 
L 531.238995 336.21564 
L 531.572727 337.138116 
L 531.906459 336.781704 
L 532.240191 343.616412 
L 533.241388 342.756832 
L 533.57512 341.394084 
L 533.908852 340.618366 
L 534.242584 340.199058 
L 534.576316 340.702227 
L 535.577512 335.964055 
L 536.244976 337.578388 
L 536.91244 335.502817 
L 537.913636 334.202965 
L 538.247368 328.039149 
L 539.248565 321.875333 
L 540.249761 320.512584 
L 540.583493 317.923362 
L 541.250957 315.33414 
L 541.584689 306.256138 
L 542.585885 296.046008 
L 542.919617 298.24737 
L 543.253349 296.528211 
L 543.587081 305.417524 
L 543.920813 304.222498 
L 544.92201 305.773935 
L 545.255742 307.78661 
L 545.589474 306.151312 
L 545.923206 303.824157 
L 546.256938 302.54527 
L 547.258134 301.476036 
L 547.591866 305.186905 
L 548.25933 300.322941 
L 548.593062 299.735911 
L 549.594258 293.110857 
L 549.92799 295.668631 
L 550.261722 295.89925 
L 550.929187 291.391697 
L 551.930383 295.354151 
L 552.264115 302.230789 
L 552.597847 304.348291 
L 553.265311 296.234696 
L 554.266507 296.004077 
L 554.600239 297.136206 
L 554.933971 299.987495 
L 555.267703 295.228358 
L 555.601435 292.565758 
L 556.602632 292.817342 
L 556.936364 289.022611 
L 557.603828 276.799806 
L 557.93756 266.61064 
L 558.938756 254.72328 
L 559.60622 270.132821 
L 559.939952 262.962667 
L 560.273684 280.636467 
L 561.27488 284.913401 
L 561.608612 278.267381 
L 562.276077 259.775933 
L 562.609809 249.691594 
L 563.611005 254.366869 
L 563.944737 261.411231 
L 564.278469 262.22888 
L 564.612201 297.052345 
L 564.945933 300.364872 
L 565.947129 331.854845 
L 566.280861 311.518444 
L 566.614593 327.452119 
L 566.948325 337.494527 
L 567.282057 329.045486 
L 568.283254 316.046962 
L 568.616986 282.355627 
L 568.950718 282.481419 
L 569.28445 270.174752 
L 569.618182 277.512628 
L 570.619378 277.093321 
L 570.95311 281.013843 
L 571.286842 294.599398 
L 571.620574 277.722282 
L 571.954306 279.273718 
L 572.955502 264.514104 
L 573.289234 264.115762 
L 573.622967 264.723758 
L 573.956699 250.949515 
L 575.625359 225.266948 
L 575.959091 235.015841 
L 576.292823 230.466357 
L 576.626555 245.959759 
L 577.627751 248.62236 
L 577.961483 250.362485 
L 578.628947 227.636034 
L 578.962679 236.168936 
L 579.963876 236.567278 
L 580.297608 246.379067 
L 580.63134 241.431241 
L 580.965072 241.682826 
L 581.298804 248.601395 
L 582.3 239.020225 
L 582.967464 246.400032 
L 583.301196 241.137726 
L 584.969856 241.829583 
L 585.303589 239.31374 
L 585.637321 229.585812 
L 585.971053 228.01341 
L 586.972249 228.28596 
L 587.305981 226.923211 
L 587.639713 222.583382 
L 587.973445 232.395171 
L 588.307177 228.768163 
L 589.642105 234.344949 
L 589.975837 245.10018 
L 590.309569 235.56094 
L 590.643301 230.801803 
L 591.644498 230.005119 
L 591.97823 225.162121 
L 592.311962 240.592627 
L 592.645694 242.814955 
L 592.979426 249.775455 
L 593.980622 246.882235 
L 594.314354 237.175273 
L 594.648086 233.590196 
L 594.981818 226.797419 
L 595.31555 228.789129 
L 596.316746 238.45416 
L 596.650478 234.512672 
L 596.984211 232.62579 
L 597.317943 234.65943 
L 597.651675 228.264995 
L 598.986603 213.945653 
L 599.320335 215.140678 
L 599.987799 222.876897 
L 600.988995 212.813523 
L 601.322727 214.281099 
L 601.656459 213.044142 
L 601.990191 210.360576 
L 602.323923 212.268424 
L 603.32512 205.978815 
L 603.658852 205.286959 
L 603.992584 196.250888 
L 604.326316 195.831581 
L 604.660048 199.605346 
L 605.661244 197.760394 
L 605.994976 200.108514 
L 606.66244 197.676532 
L 606.996172 197.82329 
L 607.997368 194.34304 
L 608.3311 183.063676 
L 608.664833 178.933499 
L 609.332297 158.09393 
L 610.333493 143.606866 
L 610.667225 141.82481 
L 611.334689 134.801414 
L 611.668421 131.761437 
L 612.669617 134.424037 
L 613.003349 126.310443 
L 613.337081 96.85411 
L 613.670813 88.887273 
L 614.004545 103.982333 
L 615.005742 98.384581 
L 615.339474 142.348944 
L 615.673206 145.598575 
L 616.006938 140.420131 
L 616.34067 140.210477 
L 617.341866 128.427944 
L 617.675598 113.374815 
L 618.00933 125.01059 
L 618.343062 147.590284 
L 618.676794 148.764345 
L 619.67799 140.545923 
L 620.011722 154.2992 
L 620.345455 145.158302 
L 620.679187 148.973998 
L 621.012919 134.927206 
L 622.347847 128.637598 
L 622.681579 139.246071 
L 623.015311 142.013498 
L 623.349043 147.946695 
L 624.350239 147.045185 
L 624.683971 154.383061 
L 625.017703 139.183174 
L 625.351435 131.195372 
L 625.685167 139.099313 
L 626.686364 134.361141 
L 627.020096 138.281664 
L 627.353828 133.061289 
L 627.68756 143.774589 
L 628.021292 137.652703 
L 629.022488 155.053953 
L 629.35622 156.458632 
L 629.689952 170.128048 
L 630.023684 175.012977 
L 630.357416 175.872557 
L 631.358612 173.943743 
L 631.692344 165.704356 
L 632.026077 164.4674 
L 632.359809 158.135861 
L 632.693541 157.695588 
L 633.694737 154.949126 
L 634.028469 153.355759 
L 634.362201 165.473737 
L 634.695933 164.236781 
L 635.029665 149.225582 
L 636.030861 148.282141 
L 636.364593 162.622448 
L 636.698325 154.760438 
L 637.032057 162.370864 
L 637.365789 156.856974 
L 638.366986 156.626355 
L 638.700718 159.645367 
L 639.03445 148.848206 
L 639.368182 158.576134 
L 639.701914 157.444004 
L 640.70311 159.624402 
L 641.036842 156.584424 
L 641.370574 171.574658 
L 641.704306 171.4279 
L 642.038038 166.584902 
L 643.039234 163.209478 
L 643.372967 155.494226 
L 643.706699 158.911579 
L 644.040431 142.852113 
L 644.374163 141.866741 
L 645.375359 172.685822 
L 645.709091 167.905719 
L 646.042823 175.348423 
L 646.710287 162.790171 
L 647.711483 165.0125 
L 648.045215 163.56589 
L 648.378947 168.995918 
L 648.712679 176.857929 
L 649.046411 169.163641 
L 650.047608 184.049048 
L 650.38134 201.072921 
L 650.715072 196.628264 
L 651.048804 197.802325 
L 651.382536 209.584858 
L 652.383732 216.608254 
L 652.717464 196.397645 
L 653.71866 182.874987 
L 654.719856 175.76773 
L 655.053589 172.329411 
L 655.387321 183.399121 
L 655.721053 182.308923 
L 656.054785 183.294295 
L 657.055981 187.843778 
L 657.389713 179.667287 
L 657.723445 179.122188 
L 658.057177 162.853067 
L 658.390909 167.465447 
L 659.392105 167.36062 
L 660.059569 169.457156 
L 660.393301 169.603914 
L 662.061962 169.750671 
L 662.395694 164.173885 
L 662.729426 152.517144 
L 664.064354 140.860403 
L 664.398086 142.055429 
L 664.731818 145.57761 
L 665.06555 150.5464 
L 665.399282 174.530774 
L 666.734211 183.608775 
L 667.067943 176.228968 
L 667.401675 183.399121 
L 667.735407 184.552216 
L 668.736603 187.047094 
L 669.070335 186.355237 
L 669.404067 177.172409 
L 669.737799 174.866219 
L 670.071531 178.807707 
L 671.072727 177.067582 
L 671.406459 177.172409 
L 671.740191 182.874987 
L 672.407656 174.153397 
L 673.408852 174.509808 
L 673.742584 187.026129 
L 674.076316 186.040757 
L 674.410048 206.81743 
L 674.74378 199.668242 
L 675.744976 186.124618 
L 676.41244 183.021745 
L 676.746172 184.090978 
L 677.079904 194.049525 
L 678.0811 193.651183 
L 678.414833 203.316215 
L 678.748565 208.997827 
L 679.082297 212.163597 
L 679.416029 206.691638 
L 680.417225 197.781359 
L 680.750957 201.051956 
L 681.418421 209.4381 
L 681.752153 224.868606 
L 682.753349 228.516579 
L 683.420813 238.055818 
L 683.754545 237.762303 
L 684.088278 244.408323 
L 685.089474 248.265949 
L 685.423206 235.749628 
L 685.756938 236.043144 
L 686.09067 232.66772 
L 686.424402 240.823246 
L 687.425598 232.919305 
L 687.75933 228.160168 
L 688.426794 231.975863 
L 688.760526 228.076306 
L 689.761722 227.677964 
L 690.095455 231.850071 
L 690.429187 230.04705 
L 690.762919 227.195761 
L 691.096651 229.501951 
L 692.097847 240.341043 
L 692.431579 249.565802 
L 692.765311 246.58872 
L 693.099043 231.912967 
L 694.767703 224.113853 
L 695.101435 226.881281 
L 695.435167 219.56437 
L 695.7689 225.560463 
L 696.770096 229.061678 
L 697.103828 222.730139 
L 697.43756 227.929549 
L 698.105024 211.618498 
L 699.10622 211.597532 
L 699.439952 210.192853 
L 699.773684 201.659951 
L 700.107416 206.041712 
L 700.441148 208.53659 
L 701.442344 212.079736 
L 701.776077 207.551218 
L 702.443541 216.566323 
L 702.777273 214.469787 
L 704.112201 201.848639 
L 704.445933 208.347901 
L 705.113397 185.579519 
L 706.114593 183.944221 
L 706.448325 188.703358 
L 706.782057 188.032466 
L 707.115789 191.764301 
L 707.449522 184.929593 
L 708.450718 178.3884 
L 708.78445 172.916441 
L 709.118182 163.817474 
L 709.451914 168.073442 
L 709.785646 169.07978 
L 710.786842 167.297724 
L 711.120574 164.425469 
L 711.454306 159.079302 
L 711.788038 162.559552 
L 712.12177 158.995441 
L 713.456699 159.247025 
L 713.790431 157.821381 
L 714.124163 173.000302 
L 714.457895 162.915963 
L 715.459091 163.838439 
L 715.792823 161.84673 
L 716.126555 161.238734 
L 717.795215 173.398644 
L 718.128947 173.608298 
L 718.462679 175.432284 
L 718.796411 209.836442 
L 719.130144 212.184562 
L 720.13134 211.366913 
L 720.465072 211.366913 
L 720.798804 204.427379 
L 721.132536 207.257703 
L 721.466268 206.50295 
L 722.467464 209.16555 
L 722.801196 219.585335 
L 723.134928 216.356669 
L 723.46866 208.662382 
L 723.802392 206.712603 
L 724.803589 204.532206 
L 725.137321 196.775022 
L 725.471053 198.955419 
L 725.804785 197.676532 
L 726.138517 198.389355 
L 727.139713 204.091933 
L 727.473445 195.097793 
L 727.807177 191.17727 
L 728.474641 190.716032 
L 729.475837 194.65752 
L 729.809569 191.240166 
L 730.143301 200.003688 
L 730.477033 201.135817 
L 732.145694 200.758441 
L 732.479426 202.330843 
L 732.813158 188.619496 
L 733.14689 190.108037 
L 734.148086 196.10413 
L 734.481818 195.600962 
L 734.81555 188.703358 
L 735.149282 200.590718 
L 735.483014 216.461496 
L 736.484211 226.545835 
L 736.817943 233.045097 
L 737.151675 224.554126 
L 737.485407 222.960758 
L 737.819139 211.870082 
L 739.154067 205.328889 
L 739.487799 207.844733 
L 739.821531 208.431763 
L 740.155263 209.689684 
L 741.490191 197.362052 
L 741.823923 205.64337 
L 742.157656 206.523915 
L 742.491388 201.534159 
L 743.826316 194.678486 
L 744.160048 195.957373 
L 744.49378 195.642892 
L 744.827512 190.967617 
L 745.828708 191.848162 
L 746.496172 206.775499 
L 746.829904 205.832058 
L 747.163636 203.169457 
L 747.163636 203.169457 
" clip-path="url(#pc07d952a80)" style="fill: none; stroke: #0000ff; stroke-width: 1.5; stroke-linecap: square"/>
   </g>
   <g id="patch_3">
    <path d="M 108 504 
L 108 69.12 
" style="fill: none; stroke: #000000; stroke-width: 0.8; stroke-linejoin: miter; stroke-linecap: square"/>
   </g>
   <g id="patch_4">
    <path d="M 777.6 504 
L 777.6 69.12 
" style="fill: none; stroke: #000000; stroke-width: 0.8; stroke-linejoin: miter; stroke-linecap: square"/>
   </g>
   <g id="patch_5">
    <path d="M 108 504 
L 777.6 504 
" style="fill: none; stroke: #000000; stroke-width: 0.8; stroke-linejoin: miter; stroke-linecap: square"/>
   </g>
   <g id="patch_6">
    <path d="M 108 69.12 
L 777.6 69.12 
" style="fill: none; stroke: #000000; stroke-width: 0.8; stroke-linejoin: miter; stroke-linecap: square"/>
   </g>
   <g id="text_13">
    <!-- Gold Prediction Line From LSTM -->
    <g transform="translate(348.210938 63.12)scale(0.12 -0.12)">
     <defs>
      <path id="DejaVuSans-47" d="M 3809 666 
L 3809 1919 
L 2778 1919 
L 2778 2438 
L 4434 2438 
L 4434 434 
Q 4069 175 3628 42 
Q 3188 -91 2688 -91 
Q 1594 -91 976 548 
Q 359 1188 359 2328 
Q 359 3472 976 4111 
Q 1594 4750 2688 4750 
Q 3144 4750 3555 4637 
Q 3966 4525 4313 4306 
L 4313 3634 
Q 3963 3931 3569 4081 
Q 3175 4231 2741 4231 
Q 1884 4231 1454 3753 
Q 1025 3275 1025 2328 
Q 1025 1384 1454 906 
Q 1884 428 2741 428 
Q 3075 428 3337 486 
Q 3600 544 3809 666 
z
" transform="scale(0.015625)"/>
      <path id="DejaVuSans-50" d="M 1259 4147 
L 1259 2394 
L 2053 2394 
Q 2494 2394 2734 2622 
Q 2975 2850 2975 3272 
Q 2975 3691 2734 3919 
Q 2494 4147 2053 4147 
L 1259 4147 
z
M 628 4666 
L 2053 4666 
Q 2838 4666 3239 4311 
Q 3641 3956 3641 3272 
Q 3641 2581 3239 2228 
Q 2838 1875 2053 1875 
L 1259 1875 
L 1259 0 
L 628 0 
L 628 4666 
z
" transform="scale(0.015625)"/>
      <path id="DejaVuSans-69" d="M 603 3500 
L 1178 3500 
L 1178 0 
L 603 0 
L 603 3500 
z
M 603 4863 
L 1178 4863 
L 1178 4134 
L 603 4134 
L 603 4863 
z
" transform="scale(0.015625)"/>
      <path id="DejaVuSans-4c" d="M 628 4666 
L 1259 4666 
L 1259 531 
L 3531 531 
L 3531 0 
L 628 0 
L 628 4666 
z
" transform="scale(0.015625)"/>
      <path id="DejaVuSans-46" d="M 628 4666 
L 3309 4666 
L 3309 4134 
L 1259 4134 
L 1259 2759 
L 3109 2759 
L 3109 2228 
L 1259 2228 
L 1259 0 
L 628 0 
L 628 4666 
z
" transform="scale(0.015625)"/>
      <path id="DejaVuSans-6d" d="M 3328 2828 
Q 3544 3216 3844 3400 
Q 4144 3584 4550 3584 
Q 5097 3584 5394 3201 
Q 5691 2819 5691 2113 
L 5691 0 
L 5113 0 
L 5113 2094 
Q 5113 2597 4934 2840 
Q 4756 3084 4391 3084 
Q 3944 3084 3684 2787 
Q 3425 2491 3425 1978 
L 3425 0 
L 2847 0 
L 2847 2094 
Q 2847 2600 2669 2842 
Q 2491 3084 2119 3084 
Q 1678 3084 1418 2786 
Q 1159 2488 1159 1978 
L 1159 0 
L 581 0 
L 581 3500 
L 1159 3500 
L 1159 2956 
Q 1356 3278 1631 3431 
Q 1906 3584 2284 3584 
Q 2666 3584 2933 3390 
Q 3200 3197 3328 2828 
z
" transform="scale(0.015625)"/>
      <path id="DejaVuSans-53" d="M 3425 4513 
L 3425 3897 
Q 3066 4069 2747 4153 
Q 2428 4238 2131 4238 
Q 1616 4238 1336 4038 
Q 1056 3838 1056 3469 
Q 1056 3159 1242 3001 
Q 1428 2844 1947 2747 
L 2328 2669 
Q 3034 2534 3370 2195 
Q 3706 1856 3706 1288 
Q 3706 609 3251 259 
Q 2797 -91 1919 -91 
Q 1588 -91 1214 -16 
Q 841 59 441 206 
L 441 856 
Q 825 641 1194 531 
Q 1563 422 1919 422 
Q 2459 422 2753 634 
Q 3047 847 3047 1241 
Q 3047 1584 2836 1778 
Q 2625 1972 2144 2069 
L 1759 2144 
Q 1053 2284 737 2584 
Q 422 2884 422 3419 
Q 422 4038 858 4394 
Q 1294 4750 2059 4750 
Q 2388 4750 2728 4690 
Q 3069 4631 3425 4513 
z
" transform="scale(0.015625)"/>
      <path id="DejaVuSans-54" d="M -19 4666 
L 3928 4666 
L 3928 4134 
L 2272 4134 
L 2272 0 
L 1638 0 
L 1638 4134 
L -19 4134 
L -19 4666 
z
" transform="scale(0.015625)"/>
      <path id="DejaVuSans-4d" d="M 628 4666 
L 1569 4666 
L 2759 1491 
L 3956 4666 
L 4897 4666 
L 4897 0 
L 4281 0 
L 4281 4097 
L 3078 897 
L 2444 897 
L 1241 4097 
L 1241 0 
L 628 0 
L 628 4666 
z
" transform="scale(0.015625)"/>
     </defs>
     <use xlink:href="#DejaVuSans-47"/>
     <use xlink:href="#DejaVuSans-6f" x="77.490234"/>
     <use xlink:href="#DejaVuSans-6c" x="138.671875"/>
     <use xlink:href="#DejaVuSans-64" x="166.455078"/>
     <use xlink:href="#DejaVuSans-20" x="229.931641"/>
     <use xlink:href="#DejaVuSans-50" x="261.71875"/>
     <use xlink:href="#DejaVuSans-72" x="320.271484"/>
     <use xlink:href="#DejaVuSans-65" x="359.134766"/>
     <use xlink:href="#DejaVuSans-64" x="420.658203"/>
     <use xlink:href="#DejaVuSans-69" x="484.134766"/>
     <use xlink:href="#DejaVuSans-63" x="511.917969"/>
     <use xlink:href="#DejaVuSans-74" x="566.898438"/>
     <use xlink:href="#DejaVuSans-69" x="606.107422"/>
     <use xlink:href="#DejaVuSans-6f" x="633.890625"/>
     <use xlink:href="#DejaVuSans-6e" x="695.072266"/>
     <use xlink:href="#DejaVuSans-20" x="758.451172"/>
     <use xlink:href="#DejaVuSans-4c" x="790.238281"/>
     <use xlink:href="#DejaVuSans-69" x="845.951172"/>
     <use xlink:href="#DejaVuSans-6e" x="873.734375"/>
     <use xlink:href="#DejaVuSans-65" x="937.113281"/>
     <use xlink:href="#DejaVuSans-20" x="998.636719"/>
     <use xlink:href="#DejaVuSans-46" x="1030.423828"/>
     <use xlink:href="#DejaVuSans-72" x="1080.693359"/>
     <use xlink:href="#DejaVuSans-6f" x="1119.556641"/>
     <use xlink:href="#DejaVuSans-6d" x="1180.738281"/>
     <use xlink:href="#DejaVuSans-20" x="1278.150391"/>
     <use xlink:href="#DejaVuSans-4c" x="1309.9375"/>
     <use xlink:href="#DejaVuSans-53" x="1365.650391"/>
     <use xlink:href="#DejaVuSans-54" x="1429.126953"/>
     <use xlink:href="#DejaVuSans-4d" x="1490.210938"/>
    </g>
   </g>
   <g id="legend_1">
    <g id="patch_7">
     <path d="M 715.864063 106.47625 
L 770.6 106.47625 
Q 772.6 106.47625 772.6 104.47625 
L 772.6 76.12 
Q 772.6 74.12 770.6 74.12 
L 715.864063 74.12 
Q 713.864063 74.12 713.864063 76.12 
L 713.864063 104.47625 
Q 713.864063 106.47625 715.864063 106.47625 
z
" style="fill: #ffffff; opacity: 0.8; stroke: #cccccc; stroke-linejoin: miter"/>
    </g>
    <g id="line2d_13">
     <path d="M 717.864063 82.218437 
L 727.864063 82.218437 
L 737.864063 82.218437 
" style="fill: none; stroke: #ff0000; stroke-width: 1.5; stroke-linecap: square"/>
    </g>
    <g id="text_14">
     <!-- real -->
     <g transform="translate(745.864063 85.718437)scale(0.1 -0.1)">
      <use xlink:href="#DejaVuSans-72"/>
      <use xlink:href="#DejaVuSans-65" x="38.863281"/>
      <use xlink:href="#DejaVuSans-61" x="100.386719"/>
      <use xlink:href="#DejaVuSans-6c" x="161.666016"/>
     </g>
    </g>
    <g id="line2d_14">
     <path d="M 717.864063 96.896563 
L 727.864063 96.896563 
L 737.864063 96.896563 
" style="fill: none; stroke: #0000ff; stroke-width: 1.5; stroke-linecap: square"/>
    </g>
    <g id="text_15">
     <!-- pred -->
     <g transform="translate(745.864063 100.396563)scale(0.1 -0.1)">
      <use xlink:href="#DejaVuSans-70"/>
      <use xlink:href="#DejaVuSans-72" x="63.476562"/>
      <use xlink:href="#DejaVuSans-65" x="102.339844"/>
      <use xlink:href="#DejaVuSans-64" x="163.863281"/>
     </g>
    </g>
   </g>
  </g>
 </g>
 <defs>
  <clipPath id="pc07d952a80">
   <rect x="108" y="69.12" width="669.6" height="434.88"/>
  </clipPath>
 </defs>
</svg>
